<svg width="27" height="27" viewBox="0 0 27 27" fill="none" xmlns="http://www.w3.org/2000/svg">
<g clip-path="url(#clip0_281_351)">
<path d="M26.6963 11.9456C26.0029 9.31524 23.5707 8.57117 21.3874 8.1249C19.2033 7.67778 17.3178 8.86897 17.1179 8.72049C16.9686 8.57202 15.2332 7.33105 12.8002 7.33105C10.3192 7.33105 8.28436 9.46457 8.28436 9.46457C8.28436 9.46457 8.18481 9.36502 7.04339 9.16677C5.95175 8.96852 3.71869 9.71259 1.98168 11.0025C0.194901 12.2924 -0.549171 14.5752 0.442924 16.5105C1.43755 18.4466 3.42258 19.34 5.06005 19.6369C5.95344 19.7862 13.1487 19.3889 15.9773 19.3391C18.806 19.2885 23.4206 19.5863 25.1584 18.5453C26.8954 17.5034 27.3923 14.5744 26.6963 11.9456ZM25.7532 16.2135C25.3558 17.0074 24.8108 17.9505 24.1157 18.1985C23.4222 18.4483 22.3306 18.4972 20.9403 18.4972C19.55 18.4972 17.813 18.547 16.6227 18.4474C15.4813 18.347 15.0848 18.5453 14.0918 18.644C13.0989 18.7435 8.23627 18.8928 6.15169 18.8422C4.06795 18.7916 2.62874 18.2475 1.83405 17.0563C0.990433 15.8153 0.990433 15.1708 0.990433 14.5752C1.04021 13.5823 1.78428 12.2924 2.28117 11.895C2.77722 11.4985 4.01818 10.5056 5.35784 10.2576C6.69751 10.0095 7.93847 10.158 8.48429 10.5056C9.03011 10.8532 9.97328 11.5475 10.2711 11.9448C10.5689 12.3421 10.8169 12.3421 11.0649 12.0443C11.3129 11.7466 11.1147 11.5981 10.8169 11.2505C10.5191 10.9029 9.72526 10.2086 9.07989 9.91084C9.07989 9.91084 9.67548 8.96767 11.4125 8.5214C13.1495 8.07513 14.6883 8.2236 15.8297 9.01745C16.9711 9.86107 17.6156 10.5064 17.7649 10.9029C17.9623 11.3003 18.1623 11.5483 18.5098 11.399C18.9072 11.2497 19.0059 10.9029 18.7064 10.5554C18.4095 10.158 17.8628 9.6122 18.0619 9.5135C18.2593 9.41395 20.0967 8.81835 21.5848 9.11615C23.0755 9.41395 24.2152 10.8532 25.6545 11.7963C26.7967 12.5404 26.3985 14.8224 25.7532 16.2135ZM4.2662 12.0933C4.01818 12.3911 4.2662 12.7386 4.51423 12.6889C4.81202 12.6391 5.10982 12.4408 5.01027 12.2426C4.8618 12.0435 4.51423 11.7955 4.2662 12.0933ZM6.05214 13.0862C5.80412 13.2845 5.85389 13.6818 6.05214 13.632C6.25039 13.5823 6.49926 13.3342 6.44949 13.2347C6.39971 13.1351 6.25124 12.8871 6.05214 13.0862ZM6.39971 11.1501C6.10191 11.4977 6.59796 11.8942 6.84599 11.8453C7.09401 11.7963 7.14378 11.647 7.09401 11.4479C7.04508 11.2497 6.59881 10.9519 6.39971 11.1501ZM8.1865 12.9369C7.8887 12.8374 7.78915 12.7386 7.69045 12.9369C7.4922 13.2845 7.69045 13.4827 7.98825 13.3342C8.28604 13.1849 8.43452 13.0373 8.1865 12.9369ZM11.2134 9.41479C11.0649 9.66282 11.2134 9.96061 11.561 9.96061C11.9085 9.96061 11.9085 9.76236 11.9085 9.61304C11.9085 9.46288 11.4116 9.11699 11.2134 9.41479ZM13.7443 9.11699C13.2482 9.51434 13.6945 9.71259 14.0918 9.51434C14.4883 9.31524 13.9425 8.96683 13.7443 9.11699ZM13.2482 10.5064C13.05 10.4567 12.5531 10.606 12.8011 10.9038C13.0491 11.2016 13.1984 11.3011 13.5452 11.102C13.8438 10.8532 13.546 10.5554 13.2482 10.5064ZM15.6297 10.9021C15.3817 10.9021 15.1337 11.0506 15.2822 11.1999C15.4315 11.3484 15.5808 11.4479 15.828 11.2994C16.0271 11.102 15.7791 10.9021 15.6297 10.9021ZM20.9403 9.96061C20.6914 9.96061 20.4434 10.358 20.7412 10.4567C21.0399 10.5562 21.3883 10.5562 21.3368 10.3073C21.287 10.1082 21.1875 9.96061 20.9403 9.96061ZM22.9743 11.1501C23.2223 11.2497 23.5193 11.2497 23.4206 11.0506C23.3699 10.8523 23.2223 10.6043 22.9743 10.703C22.776 10.8042 22.7263 11.0523 22.9743 11.1501ZM20.8408 11.3501C20.3937 11.3003 20.2958 11.4994 20.4434 11.7474C20.5927 11.9456 20.7901 12.0452 21.039 11.8959C21.2373 11.7457 21.0888 11.399 20.8408 11.3501ZM23.1742 11.8461C22.9245 11.8461 22.6292 12.0941 22.8756 12.2434C23.1244 12.3919 23.2729 12.343 23.4214 12.1937C23.6196 11.9456 23.3218 11.8461 23.1742 11.8461ZM24.8108 11.9937C24.5122 12.0435 24.3646 12.192 24.562 12.2915C24.7611 12.3911 24.7611 12.4898 24.9593 12.3413C25.2082 12.2426 25.1095 11.9456 24.8108 11.9937Z" fill="#001A23"/>
</g>
<defs>
<clipPath id="clip0_281_351">
<rect width="27" height="27" fill="white"/>
</clipPath>
</defs>
</svg>
