<svg width="23" height="23" viewBox="0 0 23 23" fill="none" xmlns="http://www.w3.org/2000/svg">
<path d="M22.9973 10.7804C22.9951 10.7213 22.9791 10.6671 22.9538 10.6169C22.9511 10.6111 22.952 10.6044 22.9489 10.5987C21.5998 8.20173 19.8277 6.29895 17.5312 4.78366C17.3472 4.66235 17.0984 4.71256 16.9775 4.89653C16.9664 4.91297 16.9642 4.93208 16.9562 4.94941C15.6048 6.31095 14.302 5.50309 13.9327 5.22136C12.9813 4.49305 13.319 3.05063 13.3226 3.03685C13.3546 2.90488 13.2955 2.77512 13.1879 2.70491C13.1453 2.66136 13.0955 2.62448 13.0337 2.6036C11.4531 2.06991 10.4742 1.94593 10.4333 1.9406C10.3111 1.92771 10.1902 1.96771 10.1031 2.05347L5.51593 6.58913C5.42661 6.67711 5.39373 6.7962 5.40484 6.91174C5.35685 7.0215 5.37418 7.15347 5.46038 7.24679C5.77677 7.59029 5.93008 7.90223 5.91453 8.17196C5.90253 8.38704 5.77944 8.59278 5.53904 8.80119C5.01424 9.25577 4.10551 9.01981 3.75935 8.9065C3.75046 8.8945 3.74646 8.88028 3.73579 8.86873C3.58338 8.70831 3.33009 8.7012 3.17012 8.85318L0.124423 11.7398C0.122645 11.7416 0.121312 11.7442 0.119535 11.746C0.112869 11.7527 0.10887 11.7607 0.102649 11.7678C0.0773199 11.7967 0.0559903 11.8278 0.039993 11.8615C0.0337719 11.8749 0.0297726 11.8886 0.0248846 11.9024C0.013331 11.9362 0.00666551 11.97 0.00444367 12.0055C0.00444367 12.0153 0 12.0228 0 12.0326L0.039993 19.7064C0.0413261 19.921 0.21063 20.0961 0.424371 20.1041L12.3085 20.564C12.3139 20.564 12.3187 20.5649 12.3241 20.5649C12.393 20.5649 12.4552 20.5423 12.512 20.5112C12.5134 20.5112 12.5152 20.512 12.5165 20.512C12.7125 20.5 12.8613 20.3307 12.8493 20.1352C12.8462 20.0832 12.8449 20.0312 12.8471 19.9766C12.888 18.6844 13.9767 17.6592 15.2653 17.7076C16.558 17.7494 17.5756 18.835 17.5343 20.1263C17.5312 20.209 17.5218 20.2894 17.5081 20.3694C17.4787 20.5378 17.5769 20.6929 17.7294 20.7538C17.792 20.8018 17.8644 20.8378 17.9493 20.8418L22.5814 21.0622C22.5876 21.0622 22.5938 21.0622 22.6001 21.0622C22.7027 21.0622 22.8014 21.0231 22.876 20.952C22.9551 20.8764 23 20.7715 23 20.6622V10.7946L22.9996 10.7928C22.9996 10.7888 22.9973 10.7848 22.9973 10.7804ZM3.63092 9.51884C3.87355 9.59394 4.26504 9.68903 4.68719 9.68903C5.11689 9.68903 5.57814 9.59083 5.94652 9.27177C6.31579 8.95227 6.51398 8.59411 6.53575 8.20662C6.55619 7.84846 6.41755 7.47697 6.1376 7.09837L10.5213 2.76401C10.8523 2.82134 11.6095 2.97642 12.6516 3.32036C12.5969 3.92381 12.6449 5.01962 13.5536 5.71506C13.7518 5.86703 14.4446 6.34161 15.34 6.34161C15.9119 6.34161 16.5665 6.14343 17.2272 5.54708C19.17 6.85575 20.7155 8.4608 21.9277 10.44L18.6563 10.6622C18.4395 10.6769 18.2768 10.8622 18.2857 11.0781C18.2697 11.1297 18.2622 11.1843 18.2719 11.2412C18.2773 11.2714 18.2813 11.3012 18.283 11.3323C18.3386 12.1202 17.7431 12.8076 16.9553 12.8631C16.159 12.9103 15.48 12.3224 15.4244 11.5363C15.4213 11.4869 15.4218 11.4381 15.4253 11.3905C15.4329 11.2812 15.3867 11.183 15.3133 11.1128C15.2498 10.9604 15.0969 10.8555 14.9263 10.8613L1.4633 11.5731L3.63092 9.51884ZM18.2431 20.0543C18.2444 18.4128 16.9406 17.0504 15.2885 16.9966C13.6692 16.9593 12.3045 18.1693 12.1526 19.7571L0.837632 19.3194L0.801638 12.4099L14.7299 11.6722C14.8521 12.7565 15.7684 13.5786 16.8531 13.5786C16.9037 13.5786 16.9544 13.5759 17.0055 13.5724C18.1306 13.4928 18.9834 12.5516 18.9878 11.4412L22.2001 11.2234V20.2432L18.2431 20.0543Z" fill="#001A23"/>
<path d="M10.9381 6.83533C10.3342 6.88065 9.79296 7.11928 9.49079 7.47255C9.30771 7.68585 9.22195 7.92981 9.2415 8.17821C9.29216 8.80121 9.99826 9.25358 10.9203 9.25358C10.9892 9.25358 11.059 9.25091 11.1301 9.24558C11.734 9.19936 12.2747 8.96163 12.5765 8.60835C12.7596 8.39506 12.8458 8.15021 12.8262 7.90181C12.772 7.23215 11.9539 6.76245 10.9381 6.83533ZM12.1041 8.20487C11.9104 8.4315 11.5193 8.59191 11.0834 8.6248C10.4035 8.67856 9.88316 8.39239 9.86183 8.12755C9.85517 8.04756 9.88939 7.96269 9.9636 7.87604C10.1578 7.64941 10.5488 7.4881 10.9848 7.45611C11.0403 7.45167 11.0945 7.449 11.1487 7.449C11.7566 7.449 12.1863 7.7094 12.2063 7.95247C12.213 8.03334 12.1783 8.11822 12.1041 8.20487Z" fill="#001A23"/>
<path d="M6.09412 14.1927C5.49644 14.239 4.96498 14.486 4.63571 14.8713C4.40419 15.1419 4.29532 15.4543 4.32109 15.7747C4.37975 16.5141 5.15562 17.0713 6.12611 17.0713C6.1901 17.0713 6.25587 17.0687 6.32075 17.0642C6.91798 17.0194 7.44899 16.7718 7.77916 16.3866C8.01067 16.116 8.11954 15.8036 8.09422 15.4823C8.03067 14.6944 7.15171 14.1145 6.09412 14.1927ZM7.30635 15.9822C7.08683 16.239 6.70068 16.4119 6.27364 16.4439C5.58221 16.4986 4.97609 16.1626 4.94143 15.7254C4.92632 15.5334 5.02364 15.3748 5.10896 15.2757C5.32847 15.0188 5.71463 14.846 6.14211 14.8131C6.19143 14.8095 6.24032 14.8077 6.28875 14.8077C6.92109 14.8077 7.44144 15.1255 7.47432 15.5316C7.48899 15.7245 7.39123 15.8836 7.30635 15.9822Z" fill="#001A23"/>
<path d="M19.5539 14.2967C19.1215 14.3305 18.7189 14.5309 18.4492 14.846C18.2043 15.1335 18.0852 15.4907 18.1141 15.8538C18.1723 16.5941 18.846 17.174 19.6481 17.174C19.6916 17.174 19.7361 17.1722 19.78 17.1687C20.212 17.1349 20.6146 16.9345 20.8847 16.6185C21.1296 16.331 21.2491 15.9738 21.2202 15.6098C21.1576 14.8193 20.4342 14.2367 19.5539 14.2967ZM20.4119 16.2142C20.2484 16.4061 20.0005 16.5275 19.7321 16.5483C19.2121 16.5892 18.7691 16.2479 18.7344 15.8054C18.7189 15.6085 18.7856 15.4112 18.9224 15.2508C19.0859 15.0597 19.3335 14.9384 19.6019 14.9175C19.6298 14.9148 19.6574 14.914 19.685 14.914C20.1649 14.914 20.567 15.241 20.6003 15.6596C20.6159 15.8565 20.5492 16.0533 20.4119 16.2142Z" fill="#001A23"/>
</svg>
