<svg width="22" height="22" viewBox="0 0 22 22" fill="none" xmlns="http://www.w3.org/2000/svg">
<g clip-path="url(#clip0_281_335)">
<path d="M20.0113 6.6164C19.3912 6.56888 19.2956 6.3301 19.0568 5.80502C18.818 5.28052 19.2475 4.08721 19.6294 3.03763C20.0113 1.98805 19.3431 1.22419 18.5317 0.794742C17.7203 0.36529 16.1457 0.0789879 13.9509 0.0314619C11.7561 -0.0160642 8.22485 -0.0160642 6.60267 0.0789879C4.98048 0.174613 3.07142 0.747216 2.06937 1.27229C1.06731 1.7968 2.26004 3.03763 2.6895 4.18284C3.11895 5.32804 2.9758 5.28052 2.83265 5.51872C2.83265 5.51872 2.78512 5.85312 1.92622 6.09132C1.06731 6.3301 0.590332 6.6164 0.590332 7.66598C0.590332 8.71614 1.30609 8.66804 1.83116 8.57299C2.35624 8.47736 3.21515 7.52283 3.8828 7.37968C4.55103 7.23653 6.03007 8.00038 7.17527 8.33421C8.32048 8.66804 9.99076 7.33216 10.5634 6.99833C11.136 6.66393 12.8538 8.19106 13.7602 8.42984C14.6666 8.66804 16.0982 7.76161 16.5276 7.47531C16.9571 7.18901 17.4821 7.47531 17.7203 7.71408C17.9591 7.95229 17.7679 8.47736 17.6247 10.6722C17.4816 12.8675 17.3859 17.3527 17.2428 18.9749C17.0996 20.5977 15.525 20.6452 14.5229 20.7408C13.5209 20.8359 9.56017 21.0746 7.31785 20.8359C5.07496 20.5977 4.40731 20.0251 3.92976 19.3568C3.4522 18.6886 3.59593 13.1538 3.73908 11.3404C3.88223 9.52695 3.97785 8.42984 3.2621 8.19106C2.54635 7.95229 2.97637 8.81119 2.88075 10.1476C2.78512 11.4835 2.59444 17.9253 2.88075 19.7388C3.16705 21.5516 6.41199 21.9335 9.27501 21.9811C12.138 22.0292 14.6672 22.0292 16.6232 21.4566C18.5798 20.884 18.3886 18.6886 18.3886 16.1119C18.3886 13.5352 18.7224 9.14559 18.7705 8.85929C18.818 8.57299 19.4387 8.85929 20.1064 8.85929C20.774 8.85929 21.2516 8.09544 21.3947 7.52283C21.5379 6.95023 20.6315 6.66393 20.0113 6.6164ZM4.45541 1.8449C4.93238 1.74927 7.2709 1.22419 9.94267 1.22419C12.6144 1.22419 14.9529 1.17667 16.432 1.5105C17.911 1.8449 18.8655 1.89242 18.5792 3.32393C18.2929 4.75544 18.2929 4.99422 18.2929 4.99422C18.2929 4.99422 15.0961 4.56476 13.7121 4.42161C12.3287 4.27846 11.3266 3.75338 9.75199 3.80091C8.17733 3.84901 7.5091 4.13531 6.22074 4.23036C4.93238 4.32599 3.5484 4.61229 3.50088 4.32599C3.45335 4.03969 3.0239 2.4175 3.0239 2.4175C3.11952 2.17873 3.97843 1.93995 4.45541 1.8449ZM20.4408 7.76161C19.9638 8.14354 19.4862 8.33421 18.9617 7.95229C18.4367 7.57093 17.8641 6.6164 16.5757 6.71203C15.2873 6.80708 15.1917 7.71408 14.476 7.80913C13.7602 7.90476 13.092 7.57093 12.5675 7.28463C12.0424 6.99833 11.4698 6.23448 10.6109 6.42572C9.75199 6.6164 9.27501 7.37968 8.4161 7.47531C7.5572 7.57093 6.93707 7.85723 6.07816 7.47531C5.21926 7.09338 5.17173 6.71203 4.12158 6.9027C3.07142 7.09338 2.30814 7.61846 1.92622 7.80913C1.54429 8.00038 0.733483 8.19106 1.11484 7.42778C1.49676 6.66393 1.87812 6.75955 2.26004 6.56888C2.64197 6.37763 3.11895 5.90065 3.11895 5.90065C3.30963 5.56682 3.50088 5.18489 4.31168 5.04174C5.12306 4.89859 5.79072 5.23242 7.03155 4.75544C8.27238 4.27846 8.84499 4.32599 10.2765 4.51666C11.708 4.70791 12.9007 4.89859 13.9028 4.99422C14.9048 5.08927 17.0046 5.42367 17.5291 5.4712C18.0536 5.51872 18.2924 5.4712 18.388 5.85312C18.4836 6.23448 19.1513 7.14148 19.6764 7.28463C20.2014 7.42778 20.9178 7.37968 20.4408 7.76161ZM7.60473 16.9233C8.17733 17.4002 10.1814 17.639 12.3287 17.5434C14.476 17.4483 15.0486 16.3982 15.0486 15.7305C15.0486 15.0623 15.0486 12.9626 15.1917 11.8655C15.3349 10.7678 15.1442 10.2908 14.5716 10.0995C13.999 9.90887 12.615 9.28874 11.136 9.28874C9.65694 9.28874 8.03418 9.62257 7.46157 9.90887C6.88897 10.1952 6.94108 11.4045 7.07965 11.9605C7.17527 12.3424 6.98402 12.6287 6.98402 14.1559C6.9846 15.6824 7.03212 16.4463 7.60473 16.9233ZM7.98665 10.9585C8.27295 10.7203 9.94324 10.1476 11.1835 10.2908C12.4243 10.4339 14.1421 10.6722 14.2853 11.2929C14.4284 11.913 14.0465 14.4422 13.999 15.1098C13.9515 15.7781 13.999 16.4463 12.52 16.5894C11.0409 16.7326 10.659 16.8276 9.70446 16.637C8.74993 16.4463 8.08228 16.3507 8.08228 15.253C8.08228 14.1559 7.93913 13.0107 7.79597 12.2468C7.79597 12.2468 7.70035 11.1972 7.98665 10.9585Z" fill="#001A23"/>
</g>
<defs>
<clipPath id="clip0_281_335">
<rect width="22" height="22" fill="white"/>
</clipPath>
</defs>
</svg>
