<svg width="260" height="103" viewBox="0 0 260 103" fill="none" xmlns="http://www.w3.org/2000/svg">
<path fill-rule="evenodd" clip-rule="evenodd" d="M101.245 65.2195L99.8662 68.6692C96.0041 80.7713 85.5765 89.4804 75.4248 94.7397C78.8455 77.4348 92.142 74.2113 101.245 65.2195ZM83.2593 51.4208V33.8331L68.9697 23.2578C64.3904 26.651 58.8732 30.1006 54.2387 33.6634L54.1284 51.647L83.2593 51.4208ZM58.5973 98.5853C60.418 75.3423 79.4524 53.9656 103.452 56.5105C101.687 66.2374 83.5903 62.5616 72.5007 90.3852C69.3559 98.3025 67.9214 97.0018 58.5421 98.5853H58.5973ZM43.9767 72.4582C38.8456 69.8002 33.9353 64.145 31.8939 56.1146H38.7905C41.8801 58.0374 46.5698 65.9547 47.2318 67.934L43.9767 72.4582ZM18.156 56.3974L27.0939 56.3408C32.9422 67.2554 34.7077 69.6871 42.2111 75.512L40.2249 82.9769C28.8043 81.2803 20.4181 68.7257 18.156 56.3408V56.3974ZM53.0249 98.2459L42.5422 97.3977C39.1215 73.4196 56.9421 56.5105 80.4455 56.1712C57.6042 77.661 62.2387 72.1754 53.0249 98.2459ZM50.4318 63.4098C46.4042 60.1298 46.4042 58.8291 45.356 56.2277L58.1559 56.3408C55.7284 59.6774 53.1904 61.2043 50.4318 63.4098ZM3.97677 56.567L14.1285 56.1712C16.9974 80.4886 33.825 84.1645 39.0112 88.4624L38.1284 96.4363C23.3974 92.0818 7.2871 80.5451 3.9216 56.567H3.97677ZM37.8525 30.8924C36.7491 19.6951 37.4663 18.9033 34.8732 16.5847C31.0112 18.7902 32.3353 18.4509 32.3905 31.062C16.7767 -2.30372 53.9628 0.410783 37.8525 30.8924ZM36.7491 51.8732C34.6525 26.9337 40.8318 39.3186 43.9215 28.2344C55.7284 -23.737 2.26643 6.34876 32.4457 36.4345L32.0043 51.9298L0.0595368 52.4953C-2.97494 118.944 111.011 119.057 107.59 52.0994L88.1145 52.0429L88.0041 32.5324L68.5283 18.564L49.6042 32.6455L49.1077 52.0429L36.8594 51.8167L36.7491 51.8732Z" fill="#faf4d3"/>
<path fill-rule="evenodd" clip-rule="evenodd" d="M178.266 53.5695C170.487 50.6288 170.763 65.2192 166.073 69.4606C160.114 61.6565 161.99 50.0067 153.935 53.6826C151.618 61.713 165.135 71.7227 161.438 79.5269C160.335 81.8456 157.19 87.727 162.928 86.709C166.018 86.1435 179.204 56.9626 178.211 53.513L178.266 53.5695Z" fill="#faf4d3"/>
<path fill-rule="evenodd" clip-rule="evenodd" d="M127.232 76.8127C128.776 72.2885 127.728 67.2554 128.169 62.5616C142.349 57.8112 136.887 83.2596 145.769 76.5299C149.19 72.9672 141.521 61.2609 138.763 58.8291C141.135 55.3229 148.528 48.1973 145.714 44.4649C136.831 40.2235 138.431 56.6801 128.611 57.3588C128.169 54.4181 128.997 44.5214 127.563 42.9945C118.349 33.211 118.459 88.01 127.232 76.8127Z" fill="#faf4d3"/>
<path fill-rule="evenodd" clip-rule="evenodd" d="M218.818 57.811C229.576 54.4744 230.735 70.8746 223.783 73.0801C213.3 76.4167 211.811 60.0165 218.818 57.811ZM208.445 68.4428C211.204 82.6374 237.19 81.7326 234.1 62.5614C231.673 47.1792 204.859 50.0068 208.445 68.4428Z" fill="#faf4d3"/>
<path fill-rule="evenodd" clip-rule="evenodd" d="M190.073 58.3202C190.128 62.2223 187.756 77.8307 193.273 77.8873C198.79 77.9438 196.418 62.1658 196.473 58.1506L205.411 57.0761C206.625 49.2153 179.425 52.2691 181.025 56.3409C182.018 58.8857 186.818 57.5285 190.018 58.2637L190.073 58.3202Z" fill="#faf4d3"/>
<path fill-rule="evenodd" clip-rule="evenodd" d="M244.859 78.2267C246.073 74.7204 245.245 70.7618 245.576 67.0859C256.61 63.3535 252.417 83.2598 259.314 77.9439C262.017 75.1729 256.004 66.068 253.852 64.1452C255.728 61.3741 261.466 55.832 259.259 52.9479C252.307 49.6113 253.576 62.4486 245.907 63.0142C245.521 60.7521 246.238 53.0044 245.079 51.7603C237.907 44.1258 238.017 86.8792 244.804 78.1701L244.859 78.2267Z" fill="#faf4d3"/>
</svg>
