<svg width="28" height="28" viewBox="0 0 28 28" fill="none" xmlns="http://www.w3.org/2000/svg">
<path d="M12.3279 1.23376L12.3538 1.22683C12.4592 1.19857 12.5716 1.21336 12.6662 1.26797C12.7608 1.32257 12.8298 1.41251 12.8581 1.51799L13.1916 2.7629L12.3703 2.98297L12.0367 1.73807C12.0085 1.63258 12.0233 1.52019 12.0779 1.42561C12.1325 1.33104 12.2224 1.26202 12.3279 1.23376Z" fill="#001A23"/>
<path d="M15.5676 2.95996L14.7428 2.73888L15.0779 1.48873C15.1063 1.3828 15.1756 1.29248 15.2706 1.23766C15.3656 1.18283 15.4785 1.16798 15.5844 1.19637L15.6104 1.20333C15.7163 1.23173 15.8066 1.30104 15.8614 1.39602C15.9163 1.491 15.9311 1.60387 15.9027 1.7098L15.5676 2.95996Z" fill="#001A23"/>
<path d="M15.8086 11.4553C15.8004 11.4285 15.7932 11.4017 15.786 11.376C15.7798 11.3513 15.7726 11.3266 15.7654 11.3029C14.6031 11.5527 13.4009 11.5527 12.2386 11.3029C11.9696 11.2446 11.704 11.1718 11.4429 11.0847C11.3708 11.3338 11.2916 11.5994 11.2051 11.8742C11.4652 11.96 11.7304 12.0331 12.0008 12.0935C13.3188 12.3872 14.6852 12.3872 16.0032 12.0935C15.9321 11.8701 15.8683 11.6581 15.8086 11.4553ZM15.8086 11.4553L15.7839 11.3719C15.7777 11.3472 15.7705 11.3225 15.7633 11.2988C14.601 11.5486 13.3989 11.5486 12.2366 11.2988C11.9676 11.2405 11.7019 11.1677 11.4408 11.0806C11.3688 11.3297 11.2895 11.5953 11.203 11.8701C11.4631 11.9559 11.7284 12.029 11.9988 12.0894C13.3167 12.3831 14.6832 12.3831 16.0011 12.0894C15.9321 11.8701 15.8683 11.6581 15.8086 11.4553ZM18.2648 15.5729L18.271 15.4545L18.2205 15.4844C17.9848 15.6247 17.7411 15.7512 17.4907 15.8632C16.3887 16.3399 15.2007 16.5859 13.9999 16.5859C12.7992 16.5859 11.6112 16.3399 10.5092 15.8632C10.2588 15.7512 10.0151 15.6247 9.77935 15.4844C9.76494 15.5142 9.75053 15.5441 9.73509 15.5729C9.52921 15.9847 9.30376 16.3872 9.06494 16.766C9.13391 17.1211 9.22244 17.4866 9.32744 17.8469C9.72891 19.2438 10.3682 20.6839 11.0466 21.9892C11.919 23.6549 12.9058 25.2581 13.9999 26.7873C15.094 25.2581 16.0809 23.6549 16.9533 21.9892C17.6317 20.6839 18.271 19.2438 18.6724 17.8469C18.7754 17.4825 18.866 17.1263 18.9349 16.766C18.6961 16.3872 18.4727 15.9857 18.2648 15.5729ZM13.9999 25.3431C13.5202 24.6225 12.8408 23.5601 12.1645 22.332C13.3729 22.6052 14.627 22.6052 15.8354 22.332C15.1591 23.5601 14.4796 24.6256 13.9999 25.3431ZM18.0589 16.9214C18.0321 17.0398 18.0033 17.1603 17.9714 17.2828C17.9621 17.3198 17.9519 17.3579 17.9416 17.396C17.9169 17.4886 17.8901 17.5833 17.8623 17.6781C17.8345 17.7728 17.8057 17.8695 17.7748 17.9663C17.7439 18.0631 17.7182 18.1454 17.6873 18.237C17.6839 18.2447 17.6812 18.2526 17.6791 18.2607C17.6461 18.3636 17.6111 18.4604 17.5761 18.5603L17.5205 18.7126C17.4835 18.8156 17.4444 18.9185 17.4042 19.0214C17.3641 19.1244 17.3229 19.2273 17.2807 19.3303C17.2385 19.4332 17.1942 19.5423 17.1479 19.6494L17.0789 19.811C17.0326 19.9139 16.9842 20.0282 16.9348 20.1383C16.9101 20.1929 16.8854 20.2485 16.8596 20.3041L16.7824 20.4708C16.731 20.582 16.6795 20.6942 16.6229 20.8075L16.5395 20.9783C16.4839 21.0916 16.4263 21.2069 16.3676 21.3222C14.8312 21.8373 13.1687 21.8373 11.6323 21.3222C11.5736 21.2069 11.517 21.0916 11.4604 20.9783L11.377 20.8075C11.3224 20.6942 11.2741 20.582 11.2174 20.4708L11.1402 20.3041C11.0394 20.0817 10.9433 19.8635 10.852 19.6494C10.7607 19.4353 10.6753 19.2242 10.5957 19.0163C10.5669 18.9422 10.5391 18.8691 10.5123 18.796C10.5061 18.7806 10.501 18.7651 10.4958 18.7497C10.4516 18.6333 10.4104 18.5181 10.3713 18.4048L10.3527 18.3503C10.3301 18.2854 10.3085 18.2206 10.2869 18.1557C10.2652 18.0908 10.2446 18.026 10.2241 17.9611C10.1932 17.8644 10.1644 17.7676 10.1366 17.6729C10.1088 17.5782 10.083 17.4835 10.0573 17.3908C10.047 17.3528 10.0367 17.3147 10.0274 17.2776C9.99553 17.1551 9.96671 17.0347 9.93994 16.9163C9.93994 16.9163 9.93994 16.9111 9.93994 16.9081C9.93376 16.8772 9.92553 16.8453 9.91935 16.8144C9.90597 16.7526 9.89259 16.6908 9.88126 16.6301C9.86994 16.5694 9.85759 16.5117 9.84729 16.4531C9.93891 16.4983 10.0316 16.5436 10.1252 16.5858C11.3461 17.1255 12.6662 17.4042 14.001 17.4042C15.3358 17.4042 16.6559 17.1255 17.8767 16.5858C17.9704 16.5436 18.063 16.4983 18.1546 16.4531C18.1444 16.5117 18.133 16.5704 18.1207 16.6301C18.1083 16.6898 18.096 16.7526 18.0826 16.8144C18.0764 16.8453 18.0682 16.8772 18.062 16.9081C18.0599 16.9163 18.0599 16.9183 18.0589 16.9214ZM13.9999 12.3097C14.6731 12.3101 15.3442 12.2362 16.0011 12.0894C16.2708 12.0283 16.5361 11.9552 16.7969 11.8701C16.7104 11.5942 16.6311 11.3297 16.5591 11.0806C16.298 11.1677 16.0323 11.2405 15.7633 11.2988C14.601 11.5486 13.3989 11.5486 12.2366 11.2988C11.9676 11.2405 11.7019 11.1677 11.4408 11.0806C11.3688 11.3297 11.2895 11.5953 11.203 11.8701C11.4631 11.9559 11.7284 12.029 11.9988 12.0894C12.6557 12.2362 13.3268 12.3101 13.9999 12.3097ZM11.6621 10.2756C11.6621 10.2972 11.6508 10.3188 11.6446 10.3404C11.9416 10.1585 12.2629 10.0199 12.5989 9.92864C13.5185 9.69669 14.4814 9.69669 15.401 9.92864C15.7371 10.0197 16.0584 10.1583 16.3552 10.3404C16.3491 10.3188 16.3429 10.2972 16.3377 10.2756C16.7104 10.3733 17.1469 10.4938 17.6245 10.6389C17.7377 10.6729 17.853 10.7089 17.9704 10.7419C17.9189 10.6698 17.8674 10.6008 17.8119 10.536C17.4441 10.0831 16.9831 9.71481 16.4602 9.45614C16.0832 9.27181 15.6834 9.1382 15.2713 9.05879C14.4313 8.89821 13.5686 8.89821 12.7286 9.05879C12.3171 9.13903 11.918 9.27333 11.5417 9.4582C11.0195 9.71753 10.559 10.0858 10.1911 10.5381C10.1366 10.605 10.0882 10.6739 10.0326 10.7439C10.1499 10.7069 10.2652 10.6708 10.3785 10.641C10.853 10.4938 11.2895 10.3733 11.6621 10.2756ZM10.6996 13.3411C10.9498 13.4548 11.2062 13.5541 11.4676 13.6386C13.1143 14.1684 14.8856 14.1684 16.5323 13.6386C16.7937 13.5541 17.0501 13.4548 17.3002 13.3411C17.1973 13.0776 17.1098 12.8172 17.0233 12.5629C16.7738 12.6808 16.5169 12.7825 16.2544 12.8676C14.7874 13.3329 13.2125 13.3329 11.7455 12.8676C11.4832 12.7834 11.2264 12.683 10.9766 12.567C10.8901 12.8172 10.7974 13.0735 10.6996 13.3411ZM15.8086 11.4553C15.8004 11.4285 15.7932 11.4017 15.786 11.376C15.7788 11.3503 15.7705 11.3245 15.7633 11.2988C14.601 11.5486 13.3989 11.5486 12.2366 11.2988C11.9676 11.2405 11.7019 11.1677 11.4408 11.0806C11.3688 11.3297 11.2895 11.5953 11.203 11.8701C11.4631 11.9559 11.7284 12.029 11.9988 12.0894C13.3167 12.3831 14.6832 12.3831 16.0011 12.0894C15.9321 11.8701 15.8683 11.6581 15.8086 11.4553Z" fill="#001A23"/>
<path d="M16.7969 11.8701C16.5368 11.9559 16.2716 12.029 16.0012 12.0894C14.6833 12.3831 13.3168 12.3831 11.9989 12.0894C11.7292 12.0283 11.4639 11.9552 11.2031 11.8701C11.2896 11.5942 11.3689 11.3297 11.4409 11.0806C11.702 11.1677 11.9677 11.2405 12.2367 11.2988C13.399 11.5486 14.6011 11.5486 15.7634 11.2988C16.0324 11.2405 16.2981 11.1677 16.5592 11.0806C16.6312 11.3297 16.7105 11.5942 16.7969 11.8701Z" fill="#001A23"/>
<path d="M17.3003 13.3412C17.0502 13.4549 16.7938 13.5542 16.5324 13.6387C14.8857 14.1685 13.1143 14.1685 11.4676 13.6387C11.2062 13.5542 10.9498 13.4549 10.6997 13.3412C10.8026 13.0777 10.8901 12.8173 10.9766 12.563C11.2264 12.6804 11.4832 12.7822 11.7456 12.8677C13.2125 13.333 14.7875 13.333 16.2544 12.8677C16.5169 12.784 16.7737 12.6836 17.0234 12.5671C17.1099 12.8173 17.2025 13.0736 17.3003 13.3412Z" fill="#001A23"/>
<path d="M10.5967 19.0215C10.677 19.2274 10.7624 19.4384 10.853 19.6546C10.7614 19.4405 10.6759 19.2284 10.5967 19.0215Z" fill="#001A23"/>
<path d="M10.853 19.6545C10.945 19.8687 11.0411 20.0869 11.1413 20.3092C11.0394 20.0869 10.9426 19.8676 10.853 19.6545Z" fill="#001A23"/>
<path d="M11.1414 20.3092C11.2443 20.5305 11.3472 20.7549 11.4615 20.9835C11.349 20.7549 11.2422 20.5302 11.1414 20.3092Z" fill="#001A23"/>
<path d="M16.3678 21.3274C16.3214 21.4211 16.2731 21.5147 16.2236 21.6095C16.096 21.8555 15.9663 22.0964 15.8366 22.33C14.6282 22.6032 13.3741 22.6032 12.1657 22.33C12.036 22.0943 11.9063 21.8534 11.7786 21.6095C11.7292 21.5147 11.6808 21.4211 11.6345 21.3274C13.1709 21.8425 14.8334 21.8425 16.3698 21.3274H16.3678Z" fill="#001A23"/>
<path d="M16.5386 20.9835C16.6508 20.7549 16.7568 20.5305 16.8587 20.3092C16.7578 20.5309 16.6511 20.7556 16.5386 20.9835Z" fill="#001A23"/>
<path d="M16.8586 20.3092C16.9616 20.0869 17.0563 19.8687 17.1469 19.6545C17.0573 19.8676 16.9606 20.0869 16.8586 20.3092Z" fill="#001A23"/>
<path d="M18.271 15.4546L18.2648 15.573C18.2442 15.8699 18.2071 16.1655 18.1536 16.4583C18.062 16.5036 17.9694 16.5489 17.8757 16.5911C16.6548 17.1307 15.3348 17.4094 14 17.4094C12.6652 17.4094 11.3451 17.1307 10.1242 16.5911C10.0305 16.5489 9.9379 16.5036 9.84628 16.4583C9.79285 16.1655 9.75573 15.8699 9.73511 15.573C9.75055 15.5441 9.76496 15.5143 9.77937 15.4844C10.0151 15.6248 10.2588 15.7513 10.5092 15.8633C11.6113 16.34 12.7992 16.5859 14 16.5859C15.2007 16.5859 16.3887 16.34 17.4907 15.8633C17.7411 15.7513 17.9848 15.6248 18.2205 15.4844L18.271 15.4546Z" fill="#001A23"/>
<path d="M17.8089 10.5381L17.6215 10.641C17.7348 10.675 17.8501 10.711 17.9674 10.744C17.919 10.674 17.8665 10.6029 17.8089 10.5381ZM16.2545 12.8676C14.7876 13.333 13.2126 13.333 11.7457 12.8676C11.4834 12.7835 11.2265 12.6831 10.9767 12.5671C10.8902 12.8213 10.7976 13.0818 10.6998 13.3453C10.9499 13.459 11.2063 13.5583 11.4677 13.6428C13.1144 14.1726 14.8858 14.1726 16.5324 13.6428C16.7938 13.5583 17.0502 13.459 17.3004 13.3453C17.1974 13.0818 17.1099 12.8213 17.0234 12.5671C16.7738 12.6835 16.5169 12.7839 16.2545 12.8676ZM14.0001 12.3097C14.6732 12.3102 15.3443 12.2363 16.0012 12.0894C16.271 12.0283 16.5362 11.9552 16.797 11.8701C16.7105 11.5943 16.6312 11.3297 16.5592 11.0806C16.2981 11.1677 16.0325 11.2405 15.7635 11.2988C14.6011 11.5486 13.399 11.5486 12.2367 11.2988C11.9677 11.2405 11.702 11.1677 11.441 11.0806C11.3689 11.3297 11.2896 11.5953 11.2032 11.8701C11.4633 11.9559 11.7285 12.029 11.9989 12.0894C12.6558 12.2363 13.3269 12.3102 14.0001 12.3097ZM10.1912 10.5381C10.1367 10.605 10.0883 10.674 10.0327 10.744C10.1501 10.7069 10.2654 10.6709 10.3786 10.641L10.1912 10.5381Z" fill="#001A23"/>
<path d="M18.2648 15.573L18.271 15.4546L18.2205 15.4844C17.9848 15.6248 17.7411 15.7513 17.4907 15.8633C16.3887 16.34 15.2007 16.5859 13.9999 16.5859C12.7992 16.5859 11.6112 16.34 10.5092 15.8633C10.2588 15.7513 10.0151 15.6248 9.77935 15.4844C9.76494 15.5143 9.75053 15.5441 9.73509 15.573C9.52921 15.9847 9.30376 16.3872 9.06494 16.7661C9.13391 17.1212 9.22244 17.4866 9.32744 17.8469C9.72891 19.2439 10.3682 20.684 11.0466 21.9893C11.4099 22.1319 11.7837 22.2465 12.1645 22.3321C13.3729 22.6052 14.627 22.6052 15.8354 22.3321C16.2162 22.2465 16.5899 22.1319 16.9533 21.9893C17.6317 20.684 18.271 19.2439 18.6724 17.8469C18.7754 17.4825 18.866 17.1264 18.9349 16.7661C18.6961 16.3872 18.4727 15.9858 18.2648 15.573ZM18.0589 16.9215C18.0321 17.0399 18.0033 17.1603 17.9714 17.2828C17.9621 17.3199 17.9519 17.358 17.9416 17.3961C17.9169 17.4887 17.8901 17.5834 17.8623 17.6781C17.8345 17.7728 17.8057 17.8696 17.7748 17.9664C17.7439 18.0631 17.7182 18.1455 17.6873 18.2371C17.6839 18.2448 17.6812 18.2527 17.6791 18.2608C17.6461 18.3637 17.6111 18.4605 17.5761 18.5603L17.5205 18.7127C17.4835 18.8156 17.4444 18.9186 17.4042 19.0215C17.3641 19.1244 17.3229 19.2274 17.2807 19.3303C17.2385 19.4333 17.1942 19.5424 17.1479 19.6494L17.0789 19.8111C17.0326 19.914 16.9842 20.0283 16.9348 20.1384C16.9101 20.193 16.8854 20.2486 16.8596 20.3041L16.7824 20.4709C16.731 20.5821 16.6795 20.6943 16.6229 20.8075L16.5395 20.9784C16.4839 21.0916 16.4263 21.2069 16.3676 21.3222C14.8312 21.8374 13.1687 21.8374 11.6323 21.3222C11.5736 21.2069 11.517 21.0916 11.4604 20.9784L11.377 20.8075C11.3224 20.6943 11.2741 20.5821 11.2174 20.4709L11.1402 20.3041C11.0394 20.0818 10.9433 19.8636 10.852 19.6494C10.7607 19.4353 10.6753 19.2243 10.5957 19.0164C10.5669 18.9422 10.5391 18.8691 10.5123 18.7961C10.5061 18.7806 10.501 18.7652 10.4958 18.7497C10.4516 18.6334 10.4104 18.5181 10.3713 18.4049L10.3527 18.3503C10.3301 18.2855 10.3085 18.2206 10.2869 18.1558C10.2652 18.0909 10.2446 18.0261 10.2241 17.9612C10.1932 17.8644 10.1644 17.7677 10.1366 17.673C10.1088 17.5783 10.083 17.4836 10.0573 17.3909C10.047 17.3528 10.0367 17.3147 10.0274 17.2777C9.99553 17.1552 9.96671 17.0347 9.93994 16.9164C9.93994 16.9164 9.93994 16.9112 9.93994 16.9081C9.93376 16.8772 9.92553 16.8453 9.91935 16.8144C9.90597 16.7527 9.89259 16.6909 9.88126 16.6302C9.86994 16.5694 9.85759 16.5118 9.84729 16.4531C9.93891 16.4984 10.0316 16.5437 10.1252 16.5859C11.3461 17.1255 12.6662 17.4043 14.001 17.4043C15.3358 17.4043 16.6559 17.1255 17.8767 16.5859C17.9704 16.5437 18.063 16.4984 18.1546 16.4531C18.1444 16.5118 18.133 16.5705 18.1207 16.6302C18.1083 16.6899 18.096 16.7527 18.0826 16.8144C18.0764 16.8453 18.0682 16.8772 18.062 16.9081C18.0599 16.9164 18.0599 16.9184 18.0589 16.9215Z" fill="#001A23"/>
<path d="M14.0001 2.50146C13.3282 2.50146 12.6714 2.7007 12.1128 3.07397C11.5541 3.44725 11.1187 3.97779 10.8616 4.59853C10.6045 5.21926 10.5372 5.90229 10.6683 6.56126C10.7994 7.22022 11.1229 7.82552 11.598 8.30061C12.0731 8.77569 12.6784 9.09923 13.3374 9.23031C13.9963 9.36139 14.6794 9.29411 15.3001 9.037C15.9208 8.77988 16.4514 8.34447 16.8246 7.78583C17.1979 7.22719 17.3971 6.5704 17.3971 5.89852C17.3971 4.99757 17.0392 4.13351 16.4022 3.49644C15.7651 2.85937 14.901 2.50146 14.0001 2.50146ZM14.0001 8.47823C13.4911 8.47823 12.9935 8.3273 12.5703 8.04451C12.1471 7.76173 11.8172 7.3598 11.6225 6.88955C11.4277 6.4193 11.3767 5.90185 11.476 5.40263C11.5753 4.90341 11.8204 4.44485 12.1803 4.08494C12.5402 3.72503 12.9988 3.47992 13.498 3.38062C13.9972 3.28132 14.5147 3.33228 14.9849 3.52707C15.4552 3.72185 15.8571 4.05171 16.1399 4.47492C16.4227 4.89814 16.5736 5.3957 16.5736 5.9047C16.572 6.58674 16.3003 7.24038 15.818 7.72266C15.3358 8.20494 14.6821 8.4766 14.0001 8.47823Z" fill="#001A23"/>
<path d="M17.3004 13.3411C17.0503 13.4548 16.7939 13.5541 16.5325 13.6386C16.8129 14.3964 17.1328 15.1389 17.4908 15.8632C17.7413 15.7512 17.985 15.6247 18.2207 15.4844C17.8768 14.7865 17.5696 14.0711 17.3004 13.3411ZM24.9489 13.4863C22.7594 11.2957 18.546 9.99349 16.4604 9.45613C15.7058 9.26158 15.2251 9.16687 15.2251 9.16687C15.2251 9.16687 15.2817 9.45305 15.398 9.93378C15.4855 10.293 15.6039 10.7573 15.7604 11.2998C15.7676 11.3235 15.7748 11.3482 15.781 11.3729L15.8057 11.4563C15.8654 11.6622 15.9292 11.868 15.9982 12.0904C16.0764 12.3395 16.1608 12.5989 16.2514 12.8645C16.342 13.1301 16.4305 13.3792 16.5294 13.6397C16.8098 14.3974 17.1297 15.1399 17.4877 15.8642C17.6106 16.1113 17.7389 16.3539 17.8727 16.592C17.9335 16.7011 17.9952 16.8082 18.058 16.9142C18.2516 17.2395 18.4554 17.5525 18.6695 17.8479C18.9333 18.2173 19.2262 18.565 19.5455 18.8876C22.5308 21.8729 24.5351 21.4611 26.0308 19.9675C27.5266 18.4738 27.9322 16.4705 24.9489 13.4853V13.4863ZM25.4472 19.3848C24.8377 19.9942 24.2294 20.2907 23.588 20.2907C22.6122 20.2907 21.4489 19.6226 20.1313 18.3039C19.6769 17.8371 19.2758 17.3213 18.9351 16.766C18.6963 16.3872 18.4729 15.9857 18.265 15.5729L18.2711 15.4545L18.2207 15.4844C17.8768 14.7865 17.5696 14.0711 17.3004 13.3411C17.1975 13.0776 17.11 12.8172 17.0235 12.5629C16.9432 12.3261 16.867 12.0945 16.797 11.8701C16.7105 11.5942 16.6313 11.3297 16.5592 11.0805C16.483 10.815 16.4141 10.5658 16.3533 10.3404C16.3472 10.3188 16.341 10.2972 16.3358 10.2755C16.7085 10.3733 17.145 10.4938 17.6226 10.6389C17.7358 10.6729 17.8511 10.7089 17.9685 10.7419C20.0695 11.4058 22.8067 12.5032 24.3652 14.0638C25.6005 15.2991 26.2697 16.4078 26.3438 17.3466C26.4025 18.0682 26.1173 18.7147 25.4472 19.3848Z" fill="#001A23"/>
<path d="M11.2031 11.8701C11.1331 12.0945 11.0569 12.3261 10.9766 12.5629C11.2264 12.6803 11.4832 12.7821 11.7456 12.8676C11.8362 12.602 11.9206 12.3426 11.9988 12.0935C11.7291 12.0296 11.4639 11.9552 11.2031 11.8701ZM10.6997 13.3411C10.4305 14.0711 10.1234 14.7865 9.77942 15.4844C10.0151 15.6247 10.2588 15.7512 10.5093 15.8632C10.8673 15.1389 11.1872 14.3964 11.4677 13.6386C11.2062 13.5541 10.9498 13.4548 10.6997 13.3411ZM11.2031 11.8701C11.1331 12.0945 11.0569 12.3261 10.9766 12.5629C10.8902 12.8171 10.7975 13.0776 10.6997 13.3411C10.4305 14.0711 10.1234 14.7865 9.77942 15.4844C10.0151 15.6247 10.2588 15.7512 10.5093 15.8632C10.8673 15.1389 11.1872 14.3964 11.4677 13.6386C11.5706 13.3761 11.6591 13.1167 11.7456 12.8635C11.8321 12.6102 11.9206 12.3385 11.9988 12.0894C11.7291 12.0283 11.4639 11.9552 11.2031 11.8701ZM11.2031 11.8701C11.1331 12.0945 11.0569 12.3261 10.9766 12.5629C10.8902 12.8171 10.7975 13.0776 10.6997 13.3411C10.4305 14.0711 10.1234 14.7865 9.77942 15.4844C10.0151 15.6247 10.2588 15.7512 10.5093 15.8632C10.8673 15.1389 11.1872 14.3964 11.4677 13.6386C11.5706 13.3761 11.6591 13.1167 11.7456 12.8635C11.8321 12.6102 11.9206 12.3385 11.9988 12.0894C11.7291 12.0283 11.4639 11.9552 11.2031 11.8701ZM11.2031 11.8701C11.1331 12.0945 11.0569 12.3261 10.9766 12.5629C10.8902 12.8171 10.7975 13.0776 10.6997 13.3411C10.4305 14.0711 10.1234 14.7865 9.77942 15.4844C10.0151 15.6247 10.2588 15.7512 10.5093 15.8632C10.8673 15.1389 11.1872 14.3964 11.4677 13.6386C11.5706 13.3761 11.6591 13.1167 11.7456 12.8635C11.8321 12.6102 11.9206 12.3385 11.9988 12.0894C11.7291 12.0283 11.4639 11.9552 11.2031 11.8701ZM11.5418 9.45509C9.45619 9.99244 5.24075 11.2957 3.05119 13.4852C0.0658942 16.4705 0.477659 18.4748 1.97031 19.9654C3.46295 21.456 5.47031 21.8677 8.4556 18.8855C8.77493 18.5629 9.06788 18.2153 9.33163 17.8458C9.54575 17.5504 9.74957 17.2374 9.9431 16.9121C10.0059 16.8092 10.0677 16.6991 10.1284 16.5899C10.2656 16.3525 10.394 16.1099 10.5134 15.8621C10.8715 15.1379 11.1914 14.3953 11.4718 13.6376C11.5747 13.3751 11.6632 13.1157 11.7497 12.8624C11.8362 12.6092 11.9247 12.3374 12.003 12.0883C12.0894 11.8124 12.1687 11.5469 12.2407 11.2977C12.3952 10.7594 12.5156 10.291 12.6031 9.93171C12.7194 9.45097 12.776 9.16479 12.776 9.16479C12.776 9.16479 12.2963 9.26465 11.5418 9.45509ZM11.4388 11.0805C11.3668 11.3296 11.2875 11.5952 11.201 11.8701C11.131 12.0945 11.0549 12.3261 10.9746 12.5629C10.8881 12.8171 10.7955 13.0776 10.6977 13.3411C10.4292 14.0711 10.1227 14.7864 9.77942 15.4844C9.76501 15.5142 9.7506 15.5441 9.73516 15.5729C9.52928 15.9846 9.30383 16.3871 9.06501 16.766C8.72435 17.3212 8.32317 17.837 7.86884 18.3039C6.55119 19.6226 5.38795 20.2907 4.41207 20.2907C3.77075 20.2907 3.16236 19.9942 2.55295 19.3848C1.88281 18.7146 1.59766 18.0682 1.65428 17.3507C1.72839 16.4119 2.39339 15.3073 3.63281 14.0679C5.19339 12.5073 7.92648 11.4099 10.0296 10.746C10.1469 10.7089 10.2622 10.6729 10.3755 10.643C10.8531 10.4979 11.2896 10.3774 11.6622 10.2796C11.6622 10.3013 11.6509 10.3229 11.6447 10.3445C11.586 10.5658 11.5171 10.8149 11.4409 11.0805H11.4388ZM11.201 11.8701C11.131 12.0945 11.0549 12.3261 10.9746 12.5629C10.8881 12.8171 10.7955 13.0776 10.6977 13.3411C10.4292 14.0711 10.1227 14.7864 9.77942 15.4844C10.0151 15.6247 10.2588 15.7512 10.5093 15.8632C10.8673 15.1389 11.1872 14.3964 11.4677 13.6386C11.5706 13.3761 11.6591 13.1167 11.7456 12.8635C11.8321 12.6102 11.9206 12.3385 11.9988 12.0894C11.7291 12.0283 11.4639 11.9552 11.2031 11.8701H11.201ZM11.201 11.8701C11.131 12.0945 11.0549 12.3261 10.9746 12.5629C10.8881 12.8171 10.7955 13.0776 10.6977 13.3411C10.4292 14.0711 10.1227 14.7864 9.77942 15.4844C10.0151 15.6247 10.2588 15.7512 10.5093 15.8632C10.8673 15.1389 11.1872 14.3964 11.4677 13.6386C11.5706 13.3761 11.6591 13.1167 11.7456 12.8635C11.8321 12.6102 11.9206 12.3385 11.9988 12.0894C11.7291 12.0283 11.4639 11.9552 11.2031 11.8701H11.201ZM11.201 11.8701C11.131 12.0945 11.0549 12.3261 10.9746 12.5629C10.8881 12.8171 10.7955 13.0776 10.6977 13.3411C10.4292 14.0711 10.1227 14.7864 9.77942 15.4844C10.0151 15.6247 10.2588 15.7512 10.5093 15.8632C10.8673 15.1389 11.1872 14.3964 11.4677 13.6386C11.5706 13.3761 11.6591 13.1167 11.7456 12.8635C11.8321 12.6102 11.9206 12.3385 11.9988 12.0894C11.7291 12.0283 11.4639 11.9552 11.2031 11.8701H11.201ZM10.6977 13.3411C10.4292 14.0711 10.1227 14.7864 9.77942 15.4844C10.0151 15.6247 10.2588 15.7512 10.5093 15.8632C10.8673 15.1389 11.1872 14.3964 11.4677 13.6386C11.2062 13.5541 10.9498 13.4548 10.6997 13.3411H10.6977ZM11.201 11.8701C11.131 12.0945 11.0549 12.3261 10.9746 12.5629C11.225 12.6804 11.4825 12.7821 11.7456 12.8676C11.8362 12.602 11.9206 12.3426 11.9988 12.0935C11.7291 12.0296 11.4639 11.9552 11.2031 11.8701H11.201Z" fill="#001A23"/>
<path d="M18.2711 15.4546L18.265 15.573C18.2495 15.5441 18.2351 15.5143 18.2207 15.4844L18.2711 15.4546Z" fill="#001A23"/>
</svg>
