<svg width="20" height="20" viewBox="0 0 20 20" fill="none" xmlns="http://www.w3.org/2000/svg">
<path d="M18.125 19.375H1.875C1.70924 19.375 1.55027 19.3092 1.43306 19.1919C1.31585 19.0747 1.25 18.9158 1.25 18.75V1.25C1.25 1.08424 1.31585 0.925268 1.43306 0.808058C1.55027 0.690848 1.70924 0.625 1.875 0.625H18.125C18.2908 0.625 18.4497 0.690848 18.5669 0.808058C18.6842 0.925268 18.75 1.08424 18.75 1.25V18.75C18.75 18.9158 18.6842 19.0747 18.5669 19.1919C18.4497 19.3092 18.2908 19.375 18.125 19.375ZM2.5 18.125H17.5V1.875H2.5V18.125Z" fill="#001A23" fill-opacity="0.8"/>
<path d="M1.87521 15.6248C1.79295 15.6253 1.71141 15.6095 1.63526 15.5784C1.55912 15.5473 1.48986 15.5015 1.43146 15.4436C1.37288 15.3855 1.32638 15.3163 1.29465 15.2402C1.26292 15.164 1.24658 15.0823 1.24658 14.9998C1.24658 14.9173 1.26292 14.8356 1.29465 14.7595C1.32638 14.6833 1.37288 14.6142 1.43146 14.5561L4.43146 11.5561C4.74693 11.2349 5.16743 11.038 5.61611 11.0013C6.06479 10.9645 6.51171 11.0905 6.87521 11.3561L9.52521 13.2311C9.64592 13.3171 9.79327 13.3574 9.94096 13.3448C10.0886 13.3322 10.227 13.2675 10.3315 13.1623L13.0752 10.4248C13.4268 10.0737 13.9033 9.87646 14.4002 9.87646C14.8971 9.87646 15.3736 10.0737 15.7252 10.4248L18.594 13.2873C18.6522 13.3456 18.6985 13.4148 18.73 13.4909C18.7615 13.567 18.7778 13.6487 18.7778 13.7311C18.7778 13.8135 18.7615 13.8951 18.73 13.9712C18.6985 14.0474 18.6522 14.1165 18.594 14.1748C18.5357 14.2331 18.4665 14.2793 18.3904 14.3109C18.3142 14.3424 18.2326 14.3586 18.1502 14.3586C18.0678 14.3586 17.9862 14.3424 17.91 14.3109C17.8339 14.2793 17.7647 14.2331 17.7065 14.1748L14.844 11.3061C14.7859 11.2475 14.7167 11.201 14.6406 11.1693C14.5644 11.1375 14.4827 11.1212 14.4002 11.1212C14.3177 11.1212 14.236 11.1375 14.1598 11.1693C14.0837 11.201 14.0146 11.2475 13.9565 11.3061L11.219 14.0498C10.9049 14.3645 10.4893 14.5573 10.0463 14.594C9.60328 14.6306 9.16164 14.5086 8.80021 14.2498L6.15021 12.3748C6.02949 12.2888 5.88214 12.2485 5.73445 12.2611C5.58677 12.2737 5.44837 12.3384 5.34396 12.4436L2.34396 15.4436C2.28262 15.5046 2.20929 15.5522 2.1286 15.5834C2.04791 15.6146 1.96163 15.6287 1.87521 15.6248Z" fill="#001A23" fill-opacity="0.8"/>
<path d="M10.625 8.75C10.1305 8.75 9.6472 8.60338 9.23608 8.32868C8.82495 8.05397 8.50452 7.66353 8.3153 7.20671C8.12608 6.74989 8.07657 6.24723 8.17304 5.76228C8.2695 5.27732 8.5076 4.83187 8.85723 4.48223C9.20687 4.1326 9.65232 3.8945 10.1373 3.79804C10.6222 3.70157 11.1249 3.75108 11.5817 3.9403C12.0385 4.12952 12.429 4.44995 12.7037 4.86108C12.9784 5.2722 13.125 5.75555 13.125 6.25C13.125 6.91304 12.8616 7.54893 12.3928 8.01777C11.9239 8.48661 11.288 8.75 10.625 8.75ZM10.625 5C10.3778 5 10.1361 5.07331 9.93054 5.21066C9.72498 5.34802 9.56476 5.54324 9.47015 5.77165C9.37554 6.00005 9.35079 6.25139 9.39902 6.49386C9.44725 6.73634 9.5663 6.95907 9.74112 7.13388C9.91593 7.3087 10.1387 7.42775 10.3811 7.47598C10.6236 7.52421 10.8749 7.49946 11.1034 7.40485C11.3318 7.31024 11.527 7.15003 11.6643 6.94446C11.8017 6.7389 11.875 6.49723 11.875 6.25C11.875 5.91848 11.7433 5.60054 11.5089 5.36612C11.2745 5.1317 10.9565 5 10.625 5Z" fill="#001A23" fill-opacity="0.8"/>
</svg>
