<svg width="24" height="24" viewBox="0 0 24 24" fill="none" xmlns="http://www.w3.org/2000/svg">
<path d="M7.8 2.11462H16.2C19.4 2.11462 22 4.60629 22 7.67296V15.723C22 17.1971 21.3889 18.6109 20.3012 19.6533C19.2135 20.6957 17.7383 21.2813 16.2 21.2813H7.8C4.6 21.2813 2 18.7896 2 15.723V7.67296C2 6.1988 2.61107 4.78501 3.69878 3.74262C4.78649 2.70023 6.26174 2.11462 7.8 2.11462ZM7.6 4.03129C6.64522 4.03129 5.72955 4.39477 5.05442 5.04177C4.37928 5.68877 4 6.56629 4 7.48129V15.9146C4 17.8217 5.61 19.3646 7.6 19.3646H16.4C17.3548 19.3646 18.2705 19.0011 18.9456 18.3541C19.6207 17.7071 20 16.8296 20 15.9146V7.48129C20 5.57421 18.39 4.03129 16.4 4.03129H7.6ZM17.25 5.46879C17.5815 5.46879 17.8995 5.595 18.1339 5.81965C18.3683 6.04431 18.5 6.349 18.5 6.66671C18.5 6.98441 18.3683 7.28911 18.1339 7.51376C17.8995 7.73842 17.5815 7.86462 17.25 7.86462C16.9185 7.86462 16.6005 7.73842 16.3661 7.51376C16.1317 7.28911 16 6.98441 16 6.66671C16 6.349 16.1317 6.04431 16.3661 5.81965C16.6005 5.595 16.9185 5.46879 17.25 5.46879ZM12 6.90629C13.3261 6.90629 14.5979 7.41113 15.5355 8.30974C16.4732 9.20835 17 10.4271 17 11.698C17 12.9688 16.4732 14.1876 15.5355 15.0862C14.5979 15.9848 13.3261 16.4896 12 16.4896C10.6739 16.4896 9.40215 15.9848 8.46447 15.0862C7.52678 14.1876 7 12.9688 7 11.698C7 10.4271 7.52678 9.20835 8.46447 8.30974C9.40215 7.41113 10.6739 6.90629 12 6.90629ZM12 8.82296C11.2044 8.82296 10.4413 9.12586 9.87868 9.66502C9.31607 10.2042 9 10.9355 9 11.698C9 12.4605 9.31607 13.1917 9.87868 13.7309C10.4413 14.2701 11.2044 14.573 12 14.573C12.7956 14.573 13.5587 14.2701 14.1213 13.7309C14.6839 13.1917 15 12.4605 15 11.698C15 10.9355 14.6839 10.2042 14.1213 9.66502C13.5587 9.12586 12.7956 8.82296 12 8.82296Z" fill="#faf4d3"/>
</svg>
