<svg width="14" height="16" viewBox="0 0 14 16" fill="none" xmlns="http://www.w3.org/2000/svg">
<path d="M0.33064 7.50156L12.2111 0.190145C12.4093 0.0680888 12.6727 -5.53939e-07 12.9465 -5.65911e-07C13.2204 -5.77882e-07 13.4838 0.0680887 13.682 0.190145L13.6948 0.198406C13.7912 0.257577 13.868 0.3288 13.9205 0.407742C13.9729 0.486685 14 0.571697 14 0.657607C14 0.743517 13.9729 0.828529 13.9205 0.907472C13.868 0.986414 13.7912 1.05764 13.6948 1.11681L2.50719 8.00138L13.6948 14.8832C13.7912 14.9424 13.868 15.0136 13.9205 15.0925C13.9729 15.1715 14 15.2565 14 15.3424C14 15.4283 13.9729 15.5133 13.9205 15.5923C13.868 15.6712 13.7912 15.7424 13.6948 15.8016L13.682 15.8099C13.4838 15.9319 13.2204 16 12.9465 16C12.6727 16 12.4093 15.9319 12.2111 15.8099L0.33064 8.49844C0.226157 8.43414 0.142977 8.35681 0.0861417 8.27113C0.0293068 8.18545 3.53766e-07 8.09321 3.49691e-07 8C3.45617e-07 7.90679 0.0293068 7.81455 0.0861417 7.72887C0.142977 7.64319 0.226157 7.56585 0.33064 7.50156Z" fill="#001a23"/>
</svg>
