<svg width="201" height="74" viewBox="0 0 201 74" fill="none" xmlns="http://www.w3.org/2000/svg">
<path fill-rule="evenodd" clip-rule="evenodd" d="M77.9483 47.1659L76.8864 49.6607C73.913 58.4128 65.8849 64.7111 58.0692 68.5145C60.7027 55.9998 70.9397 53.6687 77.9483 47.1659ZM64.1009 37.1869V24.4677L53.0994 16.8198C49.5738 19.2736 45.3261 21.7684 41.7581 24.345L41.6731 37.3505L64.1009 37.1869ZM45.1137 71.2956C46.5155 54.4866 61.17 39.0273 79.6474 40.8677C78.2881 47.9021 64.3557 45.2437 55.8179 65.3654C53.3967 71.0911 52.2923 70.1505 45.0713 71.2956H45.1137ZM33.8574 52.4008C29.907 50.4786 26.1266 46.3889 24.555 40.5814H29.8646C32.2433 41.9719 35.8538 47.6976 36.3635 49.129L33.8574 52.4008ZM13.9782 40.7859L20.8595 40.745C25.362 48.6382 26.7213 50.3968 32.4981 54.6093L30.969 60.0078C22.1763 58.7809 15.7198 49.7016 13.9782 40.745V40.7859ZM40.8236 71.0502L32.753 70.4367C30.1194 53.0961 43.8394 40.8677 61.9346 40.6223C44.3492 56.1634 47.9172 52.1963 40.8236 71.0502ZM38.8272 45.8572C35.7264 43.4851 35.7264 42.5445 34.9193 40.6632L44.7739 40.745C42.9049 43.1579 40.951 44.2622 38.8272 45.8572ZM3.06169 40.9086L10.8774 40.6223C13.0862 58.2083 26.0417 60.8667 30.0345 63.9749L29.3548 69.7415C18.0135 66.5924 5.6103 58.2492 3.01921 40.9086H3.06169ZM29.1425 22.341C28.2929 14.2432 28.8451 13.6706 26.8487 11.9938C23.8753 13.5888 24.8948 13.3435 24.9373 22.4637C12.9163 -1.66602 41.5457 0.297073 29.1425 22.341ZM28.2929 37.514C26.6788 19.4781 31.4362 28.4347 33.8149 20.4188C42.9049 -17.1663 1.74491 4.59134 24.9797 26.349L24.6399 37.5549L0.045837 37.9639C-2.29039 86.0188 85.4667 86.1006 82.8332 37.6776L67.8388 37.6367L67.7539 23.527L52.7596 13.4253L38.19 23.6088L37.8077 37.6367L28.3779 37.4731L28.2929 37.514Z" fill="#001a23"/>
<path fill-rule="evenodd" clip-rule="evenodd" d="M137.246 38.741C131.257 36.6143 131.469 47.166 127.859 50.2333C123.271 44.5894 124.715 36.1645 118.514 38.8228C116.73 44.6303 127.137 51.8692 124.291 57.5131C123.441 59.1899 121.02 63.4433 125.437 62.7071C127.816 62.2981 137.968 41.1949 137.204 38.7001L137.246 38.741Z" fill="#001a23"/>
<path fill-rule="evenodd" clip-rule="evenodd" d="M97.9549 55.5499C99.1443 52.2781 98.3372 48.6382 98.677 45.2437C109.594 41.8083 105.388 60.2123 112.227 55.3454C114.861 52.7689 108.956 44.303 106.833 42.5444C108.659 40.0088 114.351 34.8557 112.185 32.1564C105.346 29.0891 106.578 40.9903 99.0168 41.4811C98.677 39.3544 99.3142 32.1973 98.2098 31.0931C91.1161 24.0177 91.2011 63.6477 97.9549 55.5499Z" fill="#001a23"/>
<path fill-rule="evenodd" clip-rule="evenodd" d="M168.466 41.8083C176.749 39.3953 177.641 51.2557 172.289 52.8507C164.219 55.2636 163.072 43.4033 168.466 41.8083ZM160.481 49.4971C162.605 59.7624 182.611 59.108 180.232 45.2437C178.364 34.1195 157.72 36.1644 160.481 49.4971Z" fill="#001a23"/>
<path fill-rule="evenodd" clip-rule="evenodd" d="M146.336 42.1764C146.378 44.9983 144.552 56.2861 148.8 56.327C153.047 56.3679 151.221 44.9574 151.263 42.0537L158.145 41.2766C159.079 35.5918 138.138 37.8003 139.37 40.745C140.134 42.5854 143.83 41.6038 146.294 42.1355L146.336 42.1764Z" fill="#001a23"/>
<path fill-rule="evenodd" clip-rule="evenodd" d="M188.515 56.5724C189.45 54.0367 188.813 51.1739 189.068 48.5155C197.563 45.8163 194.335 60.2123 199.644 56.3679C201.726 54.3639 197.096 47.7794 195.439 46.3888C196.883 44.3849 201.301 40.3769 199.602 38.2911C194.25 35.8781 195.227 45.1619 189.323 45.5709C189.025 43.935 189.577 38.332 188.685 37.4322C183.163 31.911 183.248 62.8297 188.473 56.5315L188.515 56.5724Z" fill="#001a23"/>
</svg>
