<svg width="80" height="80" viewBox="0 0 80 80" fill="none" xmlns="http://www.w3.org/2000/svg">
<path d="M76 33.74C76 17.74 62.46 4.66003 45.8 4.66003C32.1 5.02003 20.2 14.16 16.3 27.3L16.18 27.18C14.66 25.76 12.38 25.56 10.62 26.68C4.62 30.52 4 32.62 4 34C5.34 66.12 38.86 74 45.56 75.26C45.84 75.28 46.12 75.28 46.4 75.26C47.64 75.3 48.84 74.86 49.74 74L55.74 67.46C57.28 65.78 57.22 63.2 55.62 61.58L55.44 61.4C67.6 57.66 75.92 46.46 76 33.74ZM53.08 64.92L47.08 71.46C46.86 71.68 46.54 71.78 46.22 71.72C40 70.56 8.84 63.24 7.6 34C7.6 33.64 8.76 32.18 12.56 29.76C12.72 29.66 12.9 29.62 13.08 29.62C13.32 29.62 13.54 29.7 13.72 29.86L22.1 37.68C22.36 37.9 22.38 38.3 22.14 38.56C22.12 38.58 22.12 38.6 22.1 38.6L20 41.22C18.92 42.46 18.66 44.22 19.34 45.72C21.34 50.1 27.18 60.4 38.92 61.52C39.94 61.6 40.94 61.34 41.8 60.8L46 58C46.34 57.72 46.84 57.72 47.18 58L53.06 64C53.32 64.24 53.34 64.64 53.08 64.92ZM54.16 58.2C53.06 58.56 53.16 58.96 52.32 58.22C51.42 57.42 50.6 56.5 49.76 55.64C48.24 54.14 45.88 53.9 44.08 55.04L39.76 57.82C39.58 57.94 39.38 58 39.16 57.98C29.32 57.06 24.26 48.1 22.54 44.3C22.44 44.08 22.48 43.82 22.64 43.62L24.92 40.96C26.42 39.22 26.26 36.62 24.58 35.06L19.1 30C19.28 29.8 19.42 29.54 19.48 29.28C22.7 17.26 33.36 8.74003 45.8 8.26003C60.48 8.26003 72.4 19.68 72.4 33.74C72.4 43.4 66.5 52.46 57.82 56.58C56.64 57.14 55.64 57.72 54.16 58.2Z" fill="#001A23"/>
<path d="M51.4202 31.94C53.2002 30.32 54.3402 28.06 54.3402 25.52C54.3402 20.66 50.4202 16.7 45.3602 16.7C40.3002 16.7 36.5002 20.66 36.5002 25.52C36.5002 28.06 37.6202 30.32 39.4202 31.94C35.4202 33.28 32.7002 36.2399 32.7002 39.7599V46.6399C32.7002 47.6399 33.5002 48.4399 34.5002 48.4399H56.3602C57.3602 48.4399 58.1602 47.6399 58.1602 46.6399V39.7599C58.1402 36.2399 55.4202 33.28 51.4202 31.94ZM45.3402 20.2999C48.4202 20.2999 50.7202 22.64 50.7202 25.52C50.7202 28.4 48.4202 30.74 45.3402 30.74C42.2602 30.74 40.0802 28.4 40.0802 25.52C40.0802 22.64 42.2602 20.2999 45.3402 20.2999ZM54.5402 44.84H36.2802V39.7599C36.2802 37.0599 39.5802 34.7799 43.8402 34.7799H46.8402C51.1202 34.7799 54.5402 37.0599 54.5402 39.7599V44.84Z" fill="#001A23"/>
</svg>
