<svg width="80" height="80" viewBox="0 0 80 80" fill="none" xmlns="http://www.w3.org/2000/svg">
<path d="M49.44 59.82H51.1C49.36 64.58 51.8 69.86 56.56 71.6C61.32 73.34 66.6 70.9 68.34 66.14C68.7 65.14 68.9 64.1 68.9 63.04C68.9 61.94 68.7 60.84 68.3 59.82H71.42C72.8 59.82 74.1 59.2 74.96 58.12C75.9 57.02 76.28 55.54 76 54.12L70.6 26.24C70.06 23.74 67.86 21.98 65.3 22H51.3V13.24C51.3 10.24 48.86 7.80003 45.86 7.78003H9.44C6.44 7.80003 4 10.24 4 13.24V54.38C4 57.38 6.44 59.82 9.44 59.82H11.44C9.62 64.58 12 69.9 16.76 71.72C21.52 73.54 26.84 71.16 28.66 66.4C29.48 64.28 29.48 61.92 28.66 59.8H45.8H49.44V59.82ZM25.64 63.04C25.68 66.14 23.18 68.68 20.08 68.72C16.98 68.76 14.44 66.26 14.4 63.16C14.38 61.96 14.76 60.78 15.46 59.82H24.58C25.26 60.76 25.64 61.88 25.64 63.04ZM47.1 55.68C46.76 56.04 46.28 56.22 45.8 56.22H9.46C8.44 56.22 7.62 55.4 7.62 54.38V13.24C7.62 12.78 7.82 12.34 8.14 12C8.48 11.64 8.94 11.44 9.44 11.44H45.78C46.8 11.46 47.62 12.28 47.62 13.3V54.38C47.62 54.86 47.44 55.34 47.1 55.68ZM65.3 63.04C65.3 66.14 62.8 68.64 59.7 68.64C56.6 68.64 54.1 66.14 54.1 63.04C54.1 61.88 54.46 60.76 55.14 59.82H64.26C64.94 60.76 65.3 61.88 65.3 63.04ZM72.14 55.86C71.98 56.08 71.7 56.22 71.42 56.22H51.24V25.58H65.24C66.06 25.6 66.76 26.18 66.92 26.98L72.3 54.82C72.42 55.18 72.36 55.56 72.14 55.86Z" fill="#001A23"/>
<path d="M62.3198 40.38H55.5998C54.5998 40.38 53.7998 41.18 53.7998 42.18C53.7998 43.18 54.5998 43.98 55.5998 43.98H62.3198C63.3198 43.98 64.1198 43.18 64.1198 42.18C64.1198 41.18 63.3198 40.38 62.3198 40.38Z" fill="#001A23"/>
</svg>
