<svg width="80" height="80" viewBox="0 0 80 80" fill="none" xmlns="http://www.w3.org/2000/svg">
<path d="M38.6398 32.44L44.4798 38.76H44.5798C44.9398 39.12 45.4198 39.32 45.9398 39.32C46.4398 39.3 46.8998 39.12 47.2598 38.78L59.2598 27.1C60.0598 26.42 60.1598 25.22 59.4798 24.42C58.7998 23.62 57.5998 23.52 56.7998 24.2C56.7398 24.26 56.6598 24.32 56.5998 24.38L45.9998 34.82L41.3998 29.86C40.6598 29.12 39.4798 29.12 38.7398 29.86C38.0798 30.58 38.0398 31.68 38.6398 32.44Z" fill="#001A23"/>
<path d="M26.04 51.94H27.58C28.52 51.94 28.52 51.94 29.1 51.94H68.04C69.84 51.94 71.3 50.52 71.38 48.72L76.04 18.06V17.78C76.04 15.92 74.54 14.42 72.68 14.4H18.36L15.08 3.41997H6.04001C5.00001 3.31997 4.08001 4.07997 3.96001 5.11997C3.86001 6.15997 4.62001 7.09997 5.66001 7.19997C5.78001 7.21997 5.92001 7.21997 6.04001 7.19997H12.26L24.58 48.32C20.1 49.08 17.08 53.34 17.84 57.82C18.42 61.22 21.04 63.9 24.42 64.54C23.62 65.78 23.18 67.2 23.18 68.68C23.12 72.98 26.58 76.52 30.88 76.58C35.18 76.64 38.72 73.18 38.78 68.88C38.8 67.4 38.4 65.96 37.62 64.7H59.06C56.86 68.38 58.06 73.14 61.74 75.34C65.42 77.54 70.18 76.34 72.38 72.66C74.58 68.98 73.38 64.22 69.7 62.02C68.5 61.3 67.1 60.92 65.7 60.92H26.04C23.56 60.92 21.56 58.92 21.56 56.44C21.56 53.96 23.58 51.94 26.04 51.94ZM72.16 18.18L67.6 48.18H28.48L19.5 18.18H72.16ZM34.96 68.68C34.96 70.88 33.16 72.68 30.96 72.68C28.76 72.68 26.96 70.88 26.96 68.68C26.96 66.48 28.76 64.68 30.96 64.68C33.16 64.68 34.96 66.48 34.96 68.68ZM69.7 68.68C69.7 70.88 67.9 72.68 65.7 72.68C63.5 72.68 61.7 70.88 61.7 68.68C61.7 66.48 63.5 64.68 65.7 64.68C67.92 64.68 69.7 66.48 69.7 68.68Z" fill="#001A23"/>
</svg>
