<svg width="100" height="100" viewBox="0 0 100 100" fill="none" xmlns="http://www.w3.org/2000/svg">
<path d="M48.4006 79.7991V20.1204C48.4006 20.1204 56.4704 19.7377 57.6184 24.0735C57.6184 24.0735 63.3123 22.7983 61.0161 29.6844C61.0161 29.6844 66.0948 26.2415 69.6661 32.1071C69.6661 32.1071 75.7134 31.3423 75.2033 37.718C75.2033 37.718 82.944 44.5184 75.2601 52.3399C75.2601 52.3399 67.5893 61.6916 58.4057 55.4432C58.4057 55.4432 56.4557 59.1409 51.9495 58.1211L52.7517 79.8105L48.4006 79.7991Z" fill="#001A23"/>
<path d="M48.9795 79.5408H45.9183L47.4489 57.2588C47.4489 57.2588 43.1121 56.6373 40.6888 54.3421C40.6888 54.3421 36.3519 54.9026 33.9285 51.8853C33.9285 51.8853 35.9692 53.4623 38.3928 53.2073C38.3928 53.2073 34.1108 49.3457 32.2214 46.5435C32.2214 46.5435 26.403 46.4522 23.0865 42.2441C23.0865 42.2441 28.394 46.3979 31.7105 45.7602C31.7105 45.7602 28.4438 43.1374 27.6784 38.1644C27.6784 38.1644 29.0387 41.755 30.1865 42.3927C30.1865 42.3927 28.8264 38.1644 29.7193 33.8286C29.7193 33.8286 28.6142 42.776 35.1192 48.2594C35.1192 48.2594 33.2908 45.3053 34.3111 40.5873C34.3111 40.5873 32.7805 49.2586 42.9846 54.2316C42.9846 54.2316 38.648 51.5538 38.7754 45.0505C38.7754 45.0505 39.4132 49.3219 41.0714 50.7244C41.0714 50.7244 39.711 47.409 40.5611 43.5201C40.5611 43.5201 40.6888 54.4866 47.5766 55.6346L47.9592 51.8936C47.9592 51.8936 44.1326 47.0907 43.6225 43.3927C43.6225 43.3927 35.9692 38.4194 36.0331 32.8086C36.0331 32.8086 37.7551 36.5063 38.9031 37.5267C38.9031 37.5267 37.6276 34.084 38.648 32.8086C38.648 32.8086 38.648 40.0769 43.2397 41.3521C43.2397 41.3521 39.5408 34.7211 40.5611 25.1577C40.5611 25.1577 40.5611 30.003 41.9643 33.0636C41.9643 33.0636 41.5817 28.0904 44.1326 23.7546C44.1326 23.7546 40.6423 34.7211 44.9386 42.1175C44.9386 42.1175 45.6632 38.2917 45.9183 35.3588C45.9183 35.3588 46.5561 39.4396 45.5357 43.9028C45.5357 43.9028 45.7909 47.0573 49.2346 50.7555L48.9795 79.5408Z" fill="#001A23"/>
<path d="M4.9215 31.1526C4.8185 31.1526 4.71388 31.1317 4.61372 31.0874C4.22709 30.9173 4.05114 30.4654 4.22143 30.0791C4.4277 29.6112 4.64113 29.1469 4.86133 28.6872C5.04377 28.3057 5.50099 28.1452 5.88226 28.328C6.2633 28.5103 6.42423 28.9676 6.24133 29.3487C6.02821 29.7936 5.82194 30.2428 5.62252 30.6958C5.49614 30.982 5.21557 31.1526 4.9215 31.1526ZM3.43439 34.952C3.35166 34.952 3.26795 34.9386 3.18531 34.9106C2.78557 34.7734 2.57334 34.3379 2.71035 33.938C2.9351 33.2855 3.17578 32.6308 3.42584 31.9927C3.57998 31.5988 4.02492 31.4057 4.41729 31.5593C4.81106 31.7131 5.00518 32.1572 4.8509 32.5508C4.60874 33.169 4.37542 33.8029 4.15821 34.436C4.04904 34.7528 3.75214 34.952 3.43439 34.952ZM1.81006 40.8498C1.75778 40.8498 1.70544 40.8449 1.65255 40.8334C1.23851 40.7473 0.973419 40.3417 1.06018 39.9285C1.34106 38.5828 1.68346 37.2316 2.07702 35.9112C2.19817 35.5066 2.62376 35.2761 3.0293 35.3968C3.43439 35.5174 3.66441 35.9436 3.54378 36.3489C3.16236 37.628 2.831 38.9375 2.55784 40.2411C2.48263 40.6023 2.16437 40.8498 1.81006 40.8498ZM0.765073 50.9802C0.342684 50.9802 0 50.6374 0 50.2148C0 47.4494 0.228152 44.6734 0.677935 41.9646C0.747268 41.5478 1.13897 41.2666 1.55836 41.3354C1.97499 41.4048 2.257 41.7986 2.18774 42.2156C1.75174 44.8416 1.53066 47.5329 1.53066 50.2148C1.53066 50.6374 1.18765 50.9802 0.765073 50.9802Z" fill="#001A23"/>
<path d="M50 100C22.4301 100 0 77.4443 0 49.8094H1.53066C1.53066 76.8726 23.274 98.4693 50 98.4693C63.3301 98.4693 75.7551 93.2719 84.985 83.6508L86.09 84.6592C76.568 94.5841 63.7512 100 50 100Z" fill="#001A23"/>
<path d="M81.8855 82.5683L89.1119 80.1168L87.6236 87.5994L81.8855 82.5683Z" fill="#001A23"/>
<path d="M98.5685 59.105C98.5268 59.105 98.485 59.1012 98.4421 59.0945C98.0256 59.0253 97.7436 58.631 97.8128 58.2142C98.2482 55.5898 98.4694 52.8985 98.4694 50.2147C98.4694 49.7926 98.8123 49.4499 99.235 49.4499C99.6574 49.4499 100 49.7926 100 50.2147C100 52.9824 99.7726 55.7585 99.3225 58.465C99.2601 58.8391 98.9359 59.105 98.5685 59.105ZM97.1904 65.0648C97.1178 65.0648 97.0444 65.0547 96.9714 65.0328C96.5663 64.9121 96.336 64.486 96.4565 64.081C96.8381 62.802 97.1696 61.4924 97.4426 60.1888C97.5292 59.7741 97.9368 59.5077 98.348 59.5963C98.762 59.6826 99.027 60.088 98.9405 60.5016C98.6593 61.8467 98.3171 63.1984 97.9234 64.5184C97.8241 64.85 97.5198 65.0648 97.1904 65.0648ZM95.8615 68.923C95.7691 68.923 95.6749 68.9062 95.583 68.871C95.1895 68.7168 94.9951 68.2731 95.1487 67.8797C95.3948 67.251 95.6282 66.6163 95.8419 65.9939C95.9791 65.5948 96.4149 65.3846 96.8147 65.5189C97.2144 65.6567 97.4268 66.0918 97.2897 66.4919C97.0684 67.1342 96.8278 67.7884 96.5747 68.4366C96.4565 68.7389 96.1677 68.923 95.8615 68.923ZM94.5469 71.9688C94.4375 71.9688 94.3265 71.9453 94.2211 71.8954C93.8389 71.7157 93.6749 71.2596 93.8553 70.8773C94.0337 70.4988 94.2079 70.1176 94.377 69.7338C94.5484 69.3467 95.0008 69.1729 95.3859 69.3419C95.7729 69.5119 95.9482 69.9638 95.778 70.3503C95.6032 70.7463 95.4236 71.1393 95.2395 71.5298C95.1087 71.8068 94.8338 71.9688 94.5469 71.9688Z" fill="#001A23"/>
<path d="M100 49.8093H98.4694C98.4694 23.3179 76.7261 1.55529 50.0001 1.55529C36.6875 1.55529 24.2741 6.94277 15.0465 16.5422L13.9429 15.5329C23.4614 5.63002 36.2667 -7.62939e-05 50.0001 -7.62939e-05C77.57 -7.62939e-05 100 22.365 100 49.8093Z" fill="#001A23"/>
<path d="M18.1451 17.8308L10.9163 20.2756L12.412 12.7944L18.1451 17.8308Z" fill="#001A23"/>
</svg>
