<svg width="100" height="100" viewBox="0 0 100 100" fill="none" xmlns="http://www.w3.org/2000/svg">
<path d="M4.92165 30.9446C4.8185 30.9446 4.71388 30.9236 4.61372 30.8797C4.22709 30.7093 4.05114 30.257 4.22143 29.8704C4.4277 29.4029 4.64113 28.9385 4.86133 28.4782C5.04413 28.0967 5.50152 27.9362 5.88226 28.1194C6.2633 28.3018 6.42423 28.7593 6.24134 29.1398C6.02821 29.5854 5.82194 30.0349 5.62252 30.4872C5.49615 30.7741 5.21557 30.9446 4.92165 30.9446ZM3.4344 34.7452C3.35166 34.7452 3.26795 34.7313 3.18508 34.7034C2.78557 34.5658 2.57334 34.1304 2.71035 33.7307C2.9351 33.0781 3.17578 32.4233 3.42584 31.7845C3.57975 31.391 4.02521 31.1975 4.41729 31.3512C4.81106 31.5056 5.00519 31.949 4.8509 32.3427C4.60874 32.9615 4.37542 33.5953 4.15822 34.229C4.04904 34.5458 3.75214 34.7452 3.4344 34.7452ZM1.81006 40.6443C1.75778 40.6443 1.70544 40.6394 1.65255 40.6273C1.23851 40.5418 0.973419 40.1363 1.06018 39.7226C1.34129 38.3764 1.68346 37.0252 2.07702 35.7048C2.19817 35.2992 2.6242 35.0681 3.0293 35.1896C3.4344 35.3102 3.66441 35.7367 3.54401 36.1422C3.16236 37.4217 2.831 38.7311 2.55784 40.0354C2.48263 40.3961 2.16437 40.6443 1.81006 40.6443ZM0.765073 50.7766C0.342685 50.7766 0 50.4339 0 50.0112C0 47.245 0.228018 44.4688 0.677935 41.7593C0.747268 41.3418 1.14135 41.0608 1.55836 41.1297C1.97499 41.1994 2.257 41.5929 2.18774 42.0106C1.75174 44.6373 1.53043 47.3288 1.53043 50.0112C1.53043 50.4339 1.18765 50.7766 0.765073 50.7766Z" fill="#001A23"/>
<path d="M50 100C22.4301 100 0 77.6314 0 49.9897H1.53043C1.53043 76.4876 23.274 98.4696 50 98.4696C63.3301 98.4696 75.7551 93.1751 84.985 83.5517L86.09 84.6083C76.568 94.5357 63.7512 100 50 100Z" fill="#001A23"/>
<path d="M81.8855 82.3732L89.1119 79.9207L87.6236 87.4053L81.8855 82.3732Z" fill="#001A23"/>
<path d="M98.5685 58.904C98.5268 58.904 98.485 58.9 98.4419 58.8931C98.0256 58.8243 97.7436 58.4297 97.8128 58.0131C98.2484 55.3885 98.4696 52.6958 98.4696 50.0114C98.4696 49.5889 98.8123 49.2462 99.235 49.2462C99.6574 49.2462 100 49.5889 100 50.0114C100 52.7797 99.7726 55.5569 99.3225 58.2642C99.2601 58.638 98.9359 58.904 98.5685 58.904ZM97.1906 64.865C97.1178 64.865 97.0446 64.8551 96.9714 64.833C96.5663 64.7125 96.336 64.2861 96.4565 63.8814C96.8383 62.6019 97.1696 61.2916 97.4426 59.9881C97.5288 59.5737 97.9358 59.3056 98.348 59.3952C98.7618 59.482 99.027 59.8874 98.9405 60.3011C98.6593 61.6464 98.3169 62.9986 97.9234 64.3191C97.8243 64.6508 97.5198 64.865 97.1906 64.865ZM95.8617 68.7244C95.7691 68.7244 95.6749 68.7074 95.5832 68.6725C95.1895 68.5181 94.9951 68.0747 95.1487 67.6811C95.3948 67.0522 95.6282 66.4176 95.8419 65.7948C95.9797 65.3952 96.4149 65.1847 96.8149 65.3193C97.2145 65.457 97.4266 65.8924 97.2896 66.2929C97.0684 66.9347 96.8278 67.5894 96.5747 68.2381C96.4565 68.5401 96.1677 68.7244 95.8617 68.7244ZM94.5469 71.7705C94.4373 71.7705 94.3265 71.7476 94.2209 71.6979C93.8389 71.5173 93.6749 71.0612 93.8553 70.6795C94.0335 70.3007 94.208 69.9191 94.3769 69.5355C94.5479 69.148 94.9998 68.9735 95.3859 69.1428C95.7731 69.3133 95.9483 69.7656 95.778 70.1524C95.6032 70.548 95.4236 70.9414 95.2395 71.3322C95.1089 71.6092 94.8338 71.7705 94.5469 71.7705Z" fill="#001A23"/>
<path d="M100 49.9897H98.4696C98.4696 22.92 76.7261 1.53178 50.0001 1.53178C36.6875 1.53178 24.2741 6.82506 15.0465 16.4266L13.9429 15.3692C23.4614 5.46414 36.2669 4.57764e-05 50.0001 4.57764e-05C77.57 4.57764e-05 100 22.5387 100 49.9897Z" fill="#001A23"/>
<path d="M18.145 17.6195L10.9165 20.0649L12.4122 12.5822L18.145 17.6195Z" fill="#001A23"/>
<path d="M68.4668 70.9593H28.0523V52.6262L49.2093 25.8227L68.4668 51.223V70.9593ZM33.1994 37.7893H34.3432V39.0768L33.1994 40.3724V37.7893ZM73.746 51.7413L49.5537 19.9764L35.8683 37.1328V36.2642H31.865V42.3166L24.6058 51.7135C23.9958 52.4876 23.9422 53.6106 24.7169 54.2205C25.3085 54.6858 26.1459 54.7157 26.5272 54.361V72.4844H69.9919V53.2479L70.689 53.8947C71.04 54.3591 71.6786 54.6031 72.2187 54.6031C72.5942 54.6031 73.0237 54.4854 73.3465 54.2424C74.1326 53.6474 74.3404 52.5275 73.746 51.7413Z" fill="#001A23"/>
<path d="M41.9339 58.7136L42.2214 58.4027C42.4202 58.2028 42.6185 58.0022 42.8322 57.8188C43.0385 57.627 43.2628 57.456 43.4828 57.2822C43.7103 57.1161 43.936 56.9499 44.1744 56.8024C44.4057 56.644 44.6539 56.5139 44.895 56.3723C45.145 56.2484 45.389 56.1108 45.6454 56.0027L46.0276 55.8347C46.1555 55.781 46.2871 55.735 46.4167 55.6853C46.6742 55.5812 46.9398 55.5021 47.2029 55.4172C47.4659 55.3305 47.737 55.2722 48.0026 55.1984C48.2712 55.1353 48.5419 55.084 48.8109 55.0266L48.8204 55.0242L48.8353 55.0221C49.1031 54.9858 49.418 54.9029 49.7049 54.8078C49.9976 54.7108 50.2862 54.5962 50.5666 54.4612C50.8486 54.3295 51.1223 54.1787 51.3881 54.0151C51.6532 53.8493 51.9133 53.6745 52.1594 53.48C52.2859 53.3864 52.4076 53.2867 52.5258 53.1836C52.6474 53.0839 52.7633 52.9779 52.8769 52.8692C52.9936 52.7625 53.1066 52.6531 53.2143 52.5373C53.3243 52.4243 53.4351 52.3113 53.5367 52.1906C53.7489 51.9565 53.9428 51.7058 54.137 51.4553C54.3214 51.197 54.5074 50.94 54.6727 50.668C54.85 50.4038 54.9956 50.1199 55.1539 49.8439C55.2959 49.558 55.4499 49.2779 55.574 48.983C55.6383 48.837 55.7061 48.6919 55.7677 48.5444L55.9433 48.0981C56.0668 47.802 56.156 47.4938 56.2632 47.1918C56.3627 46.8864 56.4454 46.5765 56.5377 46.2686L56.7662 45.3324L56.9552 44.3861L57.109 43.4326C57.109 43.4326 54.2253 45.9432 49.5073 46.469C40.1786 47.5077 40.0566 54.4746 40.0566 54.4746C39.9954 56.6897 40.4474 58.3888 41.1628 59.6931C41.3191 59.4668 41.4871 59.2488 41.66 59.0366C41.7511 58.9289 41.8401 58.8193 41.9339 58.7136Z" fill="#001A23"/>
<path d="M57.109 43.4326L56.9965 44.3922L56.8471 45.3488L56.6581 46.2985C56.5796 46.6114 56.5093 46.9272 56.4223 47.2391C56.3278 47.5479 56.25 47.864 56.1385 48.1679L55.9801 48.6277C55.9242 48.7796 55.8619 48.9297 55.8026 49.0806C55.6895 49.3856 55.5456 49.6775 55.4131 49.9745C55.264 50.2635 55.1266 50.5599 54.9571 50.839C54.7993 51.1244 54.6199 51.398 54.4414 51.6721C54.2521 51.9386 54.0628 52.2066 53.8526 52.4586C53.7519 52.5892 53.6423 52.7112 53.5331 52.8338C53.4261 52.959 53.3135 53.0786 53.197 53.195C53.0834 53.3138 52.9657 53.4297 52.8432 53.5399C52.7234 53.6535 52.5999 53.7635 52.472 53.8678C52.2211 54.0834 51.9542 54.2803 51.6811 54.4677C51.4062 54.6534 51.1223 54.8263 50.8263 54.9809C50.5321 55.1372 50.2273 55.2754 49.9133 55.3944C49.5934 55.5129 49.2882 55.6136 48.9199 55.6803L48.9437 55.6763C48.6892 55.743 48.433 55.8029 48.1804 55.8736C47.9305 55.9554 47.6764 56.0212 47.4311 56.1138C47.1859 56.2051 46.9383 56.2896 46.7005 56.3979C46.581 56.4507 46.4605 56.4985 46.342 56.5538L45.9921 56.7267C45.7569 56.8373 45.5361 56.9753 45.3097 57.0998C45.0923 57.2408 44.8676 57.3703 44.6608 57.5258C44.4467 57.6703 44.2463 57.8328 44.045 57.9933C43.8507 58.1616 43.6519 58.3259 43.4716 58.5093C43.2838 58.6847 43.1113 58.8751 42.9384 59.0644L42.6898 59.3574C42.609 59.4571 42.5329 59.5601 42.4542 59.6607C42.3011 59.8666 42.1537 60.0753 42.0182 60.2919C41.9394 60.4141 41.8657 60.538 41.7928 60.6638C44.1377 63.734 48.0171 63.97 48.0171 63.97C56.881 63.8514 57.435 55.9733 57.435 55.9733C58.1924 49.802 57.109 43.4326 57.109 43.4326Z" fill="#001A23"/>
<path d="M42.1642 60.1185C42.0015 60.3498 41.8487 60.5879 41.7061 60.8321C41.5606 61.0751 41.4281 61.3258 41.3033 61.5799C41.178 61.8344 41.0634 62.094 40.9578 62.3577C40.8522 62.6217 40.759 62.8918 40.6747 63.1658C40.5912 63.4449 40.519 63.7098 40.4635 64.0267C40.4616 64.0358 40.4601 64.0461 40.4589 64.0547C40.4158 64.3885 40.6519 64.6939 40.9858 64.7372C41.3195 64.7801 41.6249 64.5439 41.6683 64.2102L41.6693 64.1992C41.6971 63.9849 41.7526 63.7259 41.814 63.4868C41.8776 63.2436 41.9503 63.0003 42.0345 62.7603C42.1182 62.5201 42.2111 62.283 42.3142 62.0498C42.4167 61.8161 42.5264 61.5854 42.648 61.3601C42.6993 61.2625 42.7534 61.1659 42.8083 61.0702C42.5822 60.7737 42.3708 60.4504 42.1781 60.0991C42.1735 60.1056 42.1685 60.1117 42.1642 60.1185Z" fill="#001A23"/>
</svg>
