<svg width="100" height="100" viewBox="0 0 100 100" fill="none" xmlns="http://www.w3.org/2000/svg">
<path d="M30.496 59.4793L31.2177 58.6981C31.7179 58.1962 32.2161 57.6927 32.7525 57.2308C33.2712 56.7493 33.8349 56.32 34.3878 55.8825C34.958 55.4659 35.5259 55.0479 36.1248 54.6767C36.7068 54.2802 37.3306 53.9523 37.9355 53.5975C38.5638 53.2847 39.1761 52.9401 39.8212 52.6688L40.7809 52.2463C41.1033 52.1118 41.4327 51.9957 41.7581 51.87C42.4057 51.6091 43.0735 51.4102 43.7352 51.1981C44.3957 50.9798 45.0753 50.8334 45.7435 50.6481C46.4176 50.4897 47.0976 50.36 47.7737 50.2155L47.7976 50.21L47.8347 50.2051C48.5077 50.1139 49.2994 49.9056 50.0208 49.6665C50.7558 49.4233 51.4814 49.1339 52.1854 48.7955C52.8938 48.4646 53.5809 48.0854 54.249 47.674C54.9145 47.2579 55.5696 46.819 56.1882 46.3306C56.5046 46.095 56.8102 45.8455 57.1076 45.5853C57.413 45.3348 57.7054 45.069 57.9908 44.7947C58.2838 44.5286 58.5667 44.2514 58.8374 43.9617C59.114 43.6776 59.3916 43.3945 59.6467 43.0895C60.1806 42.5018 60.6675 41.8723 61.1557 41.243C61.6191 40.5955 62.0858 39.9477 62.502 39.2652C62.9463 38.6005 63.3137 37.8885 63.7119 37.1934C64.0675 36.4765 64.4541 35.7725 64.766 35.0321C64.9274 34.6649 65.0988 34.3006 65.2534 33.93L65.6932 32.8074C66.0041 32.0645 66.2283 31.2903 66.4984 30.5308C66.7472 29.7647 66.9558 28.9854 67.187 28.2122L67.761 25.8594L68.2363 23.4818L68.6225 21.0852C68.6225 21.0852 61.378 27.394 49.5238 28.7143C26.0853 31.3252 25.7791 48.8285 25.7791 48.8285C25.6249 54.3942 26.7609 58.6632 28.5584 61.9402C28.9511 61.3727 29.3726 60.825 29.8076 60.2899C30.0373 60.0199 30.2603 59.7439 30.496 59.4793Z" fill="#001A23"/>
<path d="M68.6225 21.0852L68.3394 23.4978L67.9654 25.8998L67.4905 28.2869C67.2922 29.0731 67.1157 29.8672 66.8982 30.65C66.6595 31.4268 66.4656 32.2189 66.1841 32.9833L65.787 34.1393C65.6463 34.5213 65.4894 34.8975 65.3411 35.2778C65.0565 36.043 64.6948 36.7759 64.3624 37.5232C63.9878 38.2492 63.6422 38.9936 63.2165 39.6947C62.8198 40.4126 62.3695 41.0987 61.92 41.7873C61.4447 42.4579 60.9689 43.1305 60.4408 43.7643C60.189 44.0916 59.9137 44.3989 59.6386 44.707C59.3695 45.0208 59.0869 45.3218 58.793 45.6137C58.5076 45.9128 58.2131 46.2037 57.9042 46.4807C57.6042 46.7666 57.295 47.0426 56.9724 47.3049C56.3431 47.8463 55.6721 48.3401 54.9854 48.8113C54.2948 49.2788 53.5808 49.7132 52.8379 50.0998C52.0996 50.4944 51.3327 50.8402 50.5437 51.1393C49.7405 51.4382 48.973 51.6912 48.0479 51.8588L48.1085 51.8487C47.4685 52.0155 46.8248 52.1666 46.1896 52.3449C45.5626 52.5492 44.9228 52.7147 44.3082 52.9484C43.6911 53.176 43.0694 53.3892 42.473 53.6614C42.1725 53.7927 41.8683 53.9144 41.5716 54.0529L40.6922 54.4864C40.1007 54.7644 39.5467 55.1117 38.9769 55.4246C38.4307 55.7795 37.8668 56.1047 37.347 56.4944C36.81 56.8591 36.3061 57.2666 35.8 57.6692C35.311 58.0932 34.8125 58.5052 34.359 58.9655C33.8875 59.407 33.4548 59.8859 33.0198 60.3596L32.3953 61.0972C32.1922 61.3467 32.0008 61.6064 31.8029 61.8593C31.4194 62.3756 31.0482 62.9008 30.7074 63.4458C30.5106 63.7521 30.3236 64.0646 30.1423 64.3801C36.032 72.0923 45.7787 72.6873 45.7787 72.6873C68.0506 72.3882 69.4414 52.594 69.4414 52.594C71.3449 37.0888 68.6225 21.0852 68.6225 21.0852Z" fill="#001A23"/>
<path d="M31.0746 63.0088C30.666 63.5897 30.2814 64.1886 29.9237 64.8031C29.5588 65.4133 29.2256 66.0425 28.9113 66.6814C28.5963 67.3202 28.3089 67.9727 28.0443 68.6363C27.7793 69.2995 27.544 69.9766 27.3322 70.6652C27.1225 71.3663 26.9412 72.0324 26.8011 72.8296C26.7977 72.8506 26.7931 72.8775 26.7906 72.8988C26.6827 73.7374 27.275 74.5053 28.1135 74.6134C28.9526 74.7209 29.7199 74.129 29.828 73.29L29.8315 73.2625C29.9007 72.7236 30.0402 72.0722 30.1946 71.4714C30.3551 70.86 30.537 70.2492 30.7488 69.6468C30.9594 69.044 31.1922 68.4472 31.4501 67.8612C31.7084 67.2748 31.9839 66.6941 32.2893 66.1302C32.4187 65.8841 32.5549 65.6414 32.6934 65.4003C32.125 64.6561 31.5937 63.8434 31.1095 62.9606C31.0986 62.9768 31.086 62.9922 31.0746 63.0088Z" fill="#001A23"/>
<path d="M4.92165 30.9451C4.8185 30.9451 4.71388 30.9242 4.61372 30.8797C4.22709 30.7093 4.05114 30.2579 4.22143 29.8713C4.4277 29.4029 4.64052 28.9397 4.86072 28.4793C5.04324 28.0977 5.4995 27.9362 5.88174 28.119C6.26301 28.3014 6.42438 28.7582 6.24193 29.1395C6.02882 29.5854 5.82194 30.0349 5.62252 30.4882C5.49615 30.7741 5.21557 30.9451 4.92165 30.9451ZM3.4344 34.7452C3.35151 34.7452 3.26795 34.7313 3.18531 34.7034C2.78557 34.5658 2.57334 34.1304 2.71035 33.7307C2.9351 33.077 3.17578 32.4223 3.42584 31.7845C3.57975 31.3904 4.02521 31.1966 4.41729 31.3512C4.81106 31.5052 5.00519 31.949 4.8509 32.3427C4.60874 32.9609 4.37542 33.5953 4.15837 34.228C4.04927 34.5458 3.75214 34.7452 3.4344 34.7452ZM1.81006 40.6443C1.75778 40.6443 1.70544 40.6384 1.65255 40.6273C1.23851 40.5412 0.973419 40.1357 1.06018 39.7217C1.34106 38.3764 1.68346 37.0252 2.07702 35.7043C2.19817 35.2988 2.6242 35.07 3.0293 35.1896C3.4344 35.3102 3.66441 35.7367 3.54378 36.1418C3.16236 37.4217 2.831 38.7311 2.55784 40.0354C2.48263 40.3961 2.16437 40.6443 1.81006 40.6443ZM0.765283 50.7766C0.342684 50.7766 0 50.4342 0 50.0112C0 47.245 0.228152 44.4688 0.677935 41.7593C0.747268 41.3424 1.13986 41.0618 1.55836 41.1297C1.97499 41.1989 2.257 41.5929 2.18774 42.01C1.75174 44.6373 1.53066 47.3288 1.53066 50.0112C1.53066 50.4342 1.18765 50.7766 0.765283 50.7766Z" fill="#001A23"/>
<path d="M50 100C22.4301 100 0 77.6314 0 49.9897H1.53066C1.53066 76.4876 23.2742 98.4696 50 98.4696C63.3301 98.4696 75.7549 93.1751 84.985 83.5522L86.09 84.6083C76.568 94.5357 63.7512 100 50 100Z" fill="#001A23"/>
<path d="M81.8854 82.3732L89.112 79.9207L87.6237 87.4053L81.8854 82.3732Z" fill="#001A23"/>
<path d="M98.5685 58.9035C98.527 58.9035 98.485 58.8999 98.4421 58.893C98.0256 58.8242 97.7434 58.4296 97.8128 58.0131C98.2484 55.3884 98.4696 52.6958 98.4696 50.0113C98.4696 49.5888 98.8123 49.2461 99.235 49.2461C99.6572 49.2461 100 49.5888 100 50.0113C100 52.78 99.7724 55.5562 99.3225 58.2632C99.2601 58.638 98.9359 58.9035 98.5685 58.9035ZM97.1906 64.8653C97.1178 64.8653 97.0444 64.855 96.9714 64.8329C96.5663 64.7125 96.3362 64.286 96.4565 63.8813C96.8381 62.6014 97.1696 61.2916 97.4426 59.9876C97.5288 59.5736 97.9379 59.3095 98.348 59.3951C98.762 59.4819 99.027 59.8874 98.9405 60.301C98.6593 61.6463 98.3169 62.9981 97.9234 64.319C97.8243 64.6507 97.5197 64.8653 97.1906 64.8653ZM95.8617 68.7253C95.7691 68.7253 95.6749 68.7083 95.5832 68.6725C95.1897 68.5184 94.9951 68.0746 95.1487 67.681C95.3948 67.0521 95.628 66.4175 95.8419 65.7947C95.9797 65.3951 96.4153 65.1827 96.8149 65.3204C97.2144 65.4578 97.4266 65.8932 97.2896 66.2928C97.0684 66.935 96.8278 67.5893 96.5745 68.238C96.4565 68.54 96.1677 68.7253 95.8617 68.7253ZM94.5469 71.771C94.4373 71.771 94.3265 71.7475 94.2211 71.6978C93.8389 71.5173 93.6749 71.0611 93.8553 70.6794C94.0335 70.3001 94.2079 69.919 94.3774 69.5349C94.5478 69.1479 94.9987 68.9725 95.3863 69.1433C95.7729 69.3141 95.9482 69.7655 95.7774 70.1523C95.6032 70.5479 95.4236 70.9414 95.2395 71.3322C95.1089 71.6086 94.8338 71.771 94.5469 71.771Z" fill="#001A23"/>
<path d="M100 49.9897H98.4696C98.4696 22.92 76.7261 1.53178 50 1.53178C36.6875 1.53178 24.2741 6.82506 15.047 16.427L13.9429 15.3692C23.4614 5.46414 36.2669 4.57764e-05 50 4.57764e-05C77.57 4.57764e-05 100 22.5387 100 49.9897Z" fill="#001A23"/>
<path d="M18.145 17.6195L10.9165 20.0649L12.4122 12.5819L18.145 17.6195Z" fill="#001A23"/>
</svg>
