<svg width="20" height="20" viewBox="0 0 20 20" fill="none" xmlns="http://www.w3.org/2000/svg">
<g clip-path="url(#clip0_281_686)">
<path d="M10 0C4.48533 0 0 4.48533 0 10C0 15.5147 4.48533 20 10 20C15.5147 20 20 15.5147 20 10C20 4.48533 15.5147 0 10 0ZM10 18.6667C5.22133 18.6667 1.33333 14.7787 1.33333 10C1.33333 5.22133 5.22133 1.33333 10 1.33333C14.7787 1.33333 18.6667 5.22133 18.6667 10C18.6667 14.7787 14.7787 18.6667 10 18.6667Z" fill="#001A23" fill-opacity="0.8"/>
<path d="M10.5 6H9.5V9.5H6V10.5H9.5V14H10.5V10.5H14V9.5H10.5V6Z" fill="#001A23" fill-opacity="0.8"/>
</g>
<defs>
<clipPath id="clip0_281_686">
<rect width="20" height="20" fill="white"/>
</clipPath>
</defs>
</svg>
