<svg width="14" height="16" viewBox="0 0 14 16" fill="none" xmlns="http://www.w3.org/2000/svg">
<path d="M13.6694 7.50156L1.78894 0.190145C1.59071 0.0680888 1.32735 -5.53939e-07 1.05347 -5.65911e-07C0.779603 -5.77882e-07 0.516242 0.0680887 0.318011 0.190145L0.30522 0.198406C0.208788 0.257577 0.132003 0.3288 0.0795317 0.407742C0.0270605 0.486685 1.88236e-06 0.571697 1.8786e-06 0.657607C1.87485e-06 0.743517 0.0270605 0.828529 0.0795316 0.907472C0.132003 0.986414 0.208788 1.05764 0.30522 1.11681L11.4928 8.00138L0.305219 14.8832C0.208787 14.9424 0.132002 15.0136 0.079531 15.0925C0.0270598 15.1715 1.24047e-06 15.2565 1.23671e-06 15.3424C1.23296e-06 15.4283 0.0270598 15.5133 0.079531 15.5923C0.132002 15.6712 0.208787 15.7424 0.305219 15.8016L0.318011 15.8099C0.516241 15.9319 0.779602 16 1.05347 16C1.32735 16 1.59071 15.9319 1.78894 15.8099L13.6694 8.49844C13.7738 8.43414 13.857 8.35681 13.9139 8.27113C13.9707 8.18545 14 8.09321 14 8C14 7.90679 13.9707 7.81455 13.9139 7.72887C13.857 7.64319 13.7738 7.56585 13.6694 7.50156Z" fill="#001a23"/>
</svg>
