<svg width="25" height="24" viewBox="0 0 25 24" fill="none" xmlns="http://www.w3.org/2000/svg">
<path d="M24.7708 13.2271C24.3131 12.3127 23.1836 11.7407 21.9311 11.7231C21.2457 11.7142 20.5625 11.7195 19.877 11.7213C19.877 11.0717 19.877 10.4238 19.877 9.77423C19.877 9.63831 19.729 9.52357 19.5537 9.52357C14.3479 9.52357 9.1422 9.52357 3.93647 9.52357C3.21003 9.52357 2.48588 9.52357 1.75944 9.52357C1.67063 9.52357 1.60459 9.55004 1.55221 9.58535C1.54538 9.58888 1.53627 9.59418 1.52944 9.59771C1.52261 9.603 1.52033 9.6083 1.5135 9.61359C1.46568 9.65419 1.4338 9.70539 1.4338 9.77423C1.4338 11.8978 1.4338 14.0232 1.4338 16.1486C1.4338 16.9041 1.40875 17.6631 1.43607 18.4204C1.49984 20.2634 2.73865 21.988 4.70617 23.0189C5.07053 23.2113 5.44627 23.3614 5.82656 23.4867C4.84964 23.4867 3.87271 23.4867 2.8935 23.4867C2.03271 23.4867 1.17419 23.4867 0.313404 23.4867C-0.103328 23.4867 -0.105606 23.9898 0.313404 23.9898C3.52884 23.9898 6.74201 23.9898 9.95745 23.9898C10.7681 23.9898 11.5902 24.0127 12.4055 23.9898C14.4094 23.9898 16.4111 23.9898 18.4151 23.9898C19.2759 23.9898 20.1344 23.9898 20.9952 23.9898C21.4119 23.9898 21.4142 23.4867 20.9952 23.4867C19.1597 23.4867 17.3243 23.4867 15.4888 23.4867C17.4882 22.7877 19.0413 21.4214 19.6197 19.7726C19.7313 19.4566 19.7928 19.1371 19.8315 18.8158C20.5352 18.8158 21.2411 18.8158 21.947 18.8158C23.2883 18.7929 24.493 18.1203 24.8619 17.1071C25.0782 16.5104 24.9757 15.8167 24.9757 15.2059C24.9757 14.5598 25.0782 13.8396 24.7708 13.2271ZM16.5546 22.4328C15.5685 23.0119 14.373 23.3773 13.141 23.4638C12.9748 23.4761 12.8085 23.4814 12.6423 23.4867C11.3716 23.4867 10.0986 23.4867 8.82795 23.4867C7.96943 23.4567 7.12003 23.3667 6.31161 23.116C4.03894 22.4081 2.37657 20.7294 2.12152 18.837C2.0236 18.1062 2.08508 17.3507 2.08508 16.6181C2.08508 14.4221 2.08508 12.2244 2.08508 10.0284C7.18379 10.0284 12.2802 10.0284 17.3789 10.0284C17.996 10.0284 18.6132 10.0284 19.2303 10.0284C19.2303 10.678 19.2303 11.3277 19.2303 11.9773C19.2303 13.2324 19.2303 14.4875 19.2303 15.7425C19.2303 16.4116 19.2326 17.0806 19.2303 17.7496C19.2303 17.9085 19.2326 18.0674 19.2303 18.228C19.2121 19.8732 18.2648 21.4302 16.5546 22.4328ZM24.3267 14.7611C24.3267 15.3171 24.3358 15.8749 24.3267 16.431C24.3085 17.4672 23.2952 18.2898 21.947 18.311C21.257 18.311 20.567 18.311 19.877 18.311C19.877 18.2474 19.877 18.1839 19.877 18.1203C19.8861 17.7496 19.877 17.3772 19.877 17.0065C19.877 15.6013 19.877 14.1962 19.877 12.791C19.877 12.6022 19.877 12.415 19.877 12.2262C20.4259 12.2262 20.9747 12.2262 21.5235 12.2262C22.4731 12.2262 23.3589 12.3886 23.9237 13.0435C24.3791 13.5713 24.3267 14.1591 24.3267 14.7611ZM8.28369 6.11663C8.31329 7.27817 9.51794 8.28259 10.8114 8.77157C11.1849 8.91279 11.5151 8.47854 11.1393 8.33732C9.79577 7.82892 8.58428 6.73976 9.03973 5.51998C9.36082 4.65853 10.1874 3.95773 10.5359 3.09452C10.9572 2.04773 10.5769 1.03271 9.86636 0.120072C9.65002 -0.157073 9.08983 0.0953581 9.30616 0.374268C10.1305 1.43165 10.299 2.46256 9.58171 3.57643C9.05339 4.39198 8.25864 5.16163 8.28369 6.11663ZM11.4946 5.01511C12.221 4.45906 12.7402 3.75472 12.8176 2.95507C12.8472 2.64262 12.8199 2.28427 12.6628 1.99124C12.5968 1.86591 12.4465 1.77588 12.2643 1.81471C12.1117 1.84825 11.9705 1.9983 12.0366 2.12363C12.0753 2.19424 12.1003 2.27191 12.1208 2.34605C12.1322 2.38489 12.1413 2.42372 12.1504 2.46433C12.1527 2.47139 12.1572 2.5014 12.1595 2.51022C12.1618 2.52611 12.1641 2.54376 12.1664 2.55965C12.18 2.67263 12.1823 2.7856 12.1755 2.89858C12.1322 3.57114 11.6585 4.18545 11.0391 4.6603C10.7408 4.88802 11.1985 5.24283 11.4946 5.01511ZM7.243 5.42112C7.30904 5.29579 7.1724 5.14574 7.01527 5.1122C6.83082 5.07337 6.68052 5.16163 6.61676 5.28873C6.22508 6.04779 6.2228 7.0222 6.74429 7.74066C6.99706 8.08842 7.37508 8.36733 7.80775 8.57916C8.16072 8.75215 8.48636 8.3179 8.13567 8.1449C7.35003 7.76008 6.98112 7.13165 6.9925 6.43967C6.99706 6.16782 7.03122 5.99306 7.11775 5.72828C7.15419 5.62413 7.19062 5.51998 7.243 5.42112Z" fill="#001A23"/>
</svg>
