<svg width="24" height="24" viewBox="0 0 24 24" fill="none" xmlns="http://www.w3.org/2000/svg">
<path d="M16.6 5.7755C15.9165 5.02764 15.5397 4.0672 15.54 3.073H12.45V14.9563C12.4262 15.5994 12.1429 16.2085 11.6598 16.6554C11.1767 17.1023 10.5315 17.3521 9.86003 17.3522C8.44003 17.3522 7.26003 16.2405 7.26003 14.8605C7.26003 13.2122 8.92003 11.9759 10.63 12.4838V9.4555C7.18003 9.01467 4.16003 11.583 4.16003 14.8605C4.16003 18.0517 6.92003 20.323 9.85003 20.323C12.99 20.323 15.54 17.8792 15.54 14.8605V8.83258C16.793 9.69494 18.2974 10.1576 19.84 10.1551V7.19383C19.84 7.19383 17.96 7.28008 16.6 5.7755Z" fill="#faf4d3"/>
</svg>
