<svg width="30" height="30" viewBox="0 0 30 18" fill="none" xmlns="http://www.w3.org/2000/svg">
<path d="M29.8865 2.08216C29.7946 1.26785 29.5244 0.363475 29.1632 0.635537C28.802 0.906661 28.485 2.03713 28.0328 2.35328C27.5825 2.66944 26.9492 2.80547 26.1799 2.17222C25.4566 1.49488 24.4153 0.771568 22.2463 0.726537C20.0773 0.681506 18.3577 1.94706 18.0425 2.9415C18.0425 2.9415 16.1446 3.57474 15.1492 3.21262C14.1548 2.85144 9.72393 1.58494 6.87572 2.39925C4.02658 3.21262 0.137964 6.46798 0.00193336 10.2656C-0.0881286 14.0632 2.62405 17.1375 6.55769 17.3636C10.4913 17.5897 12.9784 17.0465 16.5039 15.4648C20.0323 13.8821 22.4274 12.2094 23.1966 11.7572C24.0091 11.2619 24.4172 10.9908 24.4172 10.9908C24.4172 10.9908 25.9548 11.352 26.7691 9.81435C27.5825 8.32176 27.8536 6.96614 27.8085 6.01674C27.7616 5.06733 27.6716 4.84124 27.9887 4.75024C28.3039 4.66018 29.2552 4.38905 29.7055 3.80084C30.1586 3.21262 29.9766 2.85144 29.8865 2.08216ZM24.4153 9.40625C23.783 10.4026 22.8326 10.8078 18.8089 13.3849C14.7852 15.962 10.6724 16.1881 8.50153 16.5043C6.3316 16.8214 2.66908 15.917 1.53955 13.3399C0.409088 10.7628 1.17743 8.09473 2.39889 6.42202C3.62036 4.7493 7.46206 3.07659 8.90962 2.8505C10.3562 2.6244 13.5215 3.75487 15.1483 4.11605C16.7741 4.47818 18.4928 3.48375 18.4928 3.48375C18.7639 4.11606 19.081 3.8909 19.7602 3.52878C20.3925 3.16759 21.4779 2.57937 22.3823 3.12162C23.2867 3.66387 22.2904 4.83936 21.2068 5.96983C20.1214 7.10029 20.6195 7.86863 21.7031 8.00373C22.7876 8.09473 24.3262 7.05433 24.9594 7.09936C25.5026 7.10123 25.0495 8.41276 24.4153 9.40625ZM28.4399 3.66481C27.9427 3.98096 27.1725 4.11699 26.9933 4.43315C26.8122 4.7493 26.9473 6.69408 26.8563 7.9146C26.7653 9.13513 25.4088 10.0855 25.1377 9.90441C24.8665 9.72429 25.7718 8.9081 26.134 7.68851C26.4961 6.46798 25.1836 6.0158 24.5072 6.19686C23.828 6.33289 22.1103 7.28229 21.75 7.14626C21.3879 7.01023 22.8345 5.38349 23.3327 4.56918C23.8299 3.75581 23.9209 3.07753 22.7454 2.39925C21.5239 1.766 19.9872 2.58031 19.626 2.48931C19.2639 2.39925 19.717 2.17316 19.8972 2.12813C20.3043 1.94706 21.0717 1.49488 22.4724 1.53991C23.874 1.58494 25.1405 2.17222 25.9998 2.98653C26.8591 3.7999 27.8545 3.34771 28.2607 3.07659C28.6688 2.80547 29.0741 2.12719 29.0741 2.21725C29.0741 2.30731 29.1642 2.48837 29.2101 2.8505C29.2552 3.21262 28.939 3.34865 28.4399 3.66481Z" fill="#001A23"/>
<path d="M10.6723 5.38351C10.6723 5.11239 10.5822 4.79623 9.49681 4.84033C8.41138 4.88536 5.83429 5.78973 4.88489 7.14629C3.93549 8.50284 3.84449 10.4467 4.20661 10.9899C4.56874 11.5321 4.79389 11.6222 5.06595 11.5321C5.33708 11.4402 4.70477 10.4467 5.02092 9.31622C5.33708 8.18575 6.46754 6.46801 7.68807 6.01582C8.90953 5.56364 10.6273 6.10682 10.6723 5.38351Z" fill="#001A23"/>
</svg>
