<svg width="20" height="20" viewBox="0 0 20 20" fill="none" xmlns="http://www.w3.org/2000/svg">
<g clip-path="url(#clip0_297_255)">
<path d="M9.49967 0C7.89384 0.0233333 4.44384 0.286667 2.51634 2.05583C1.08467 3.48917 0.579671 5.58333 0.527171 8.18083C0.474671 10.7775 0.406338 15.6467 5.09967 16.9667H5.10217L5.09884 18.98C5.09884 18.98 5.068 19.7942 5.60717 19.9608C6.25467 20.1625 6.6355 19.5442 7.25717 18.8758C7.59634 18.5092 8.06717 17.9725 8.42134 17.5592C11.6297 17.8308 14.098 17.2125 14.3797 17.1217C15.0263 16.9117 18.693 16.4417 19.2897 11.5742C19.9063 6.5575 18.9897 3.3825 17.3397 1.9525C16.843 1.49417 14.8347 0.0358333 10.3605 0.0166667C10.3605 0.0166667 10.0313 -0.00416667 9.49634 0.0025L9.49967 0ZM9.548 1.41083C10.0022 1.4075 10.2813 1.425 10.2813 1.425C14.0663 1.44167 15.8788 2.58167 16.2997 2.96333C17.6955 4.15917 18.408 7.02 17.888 11.2108V11.2125C17.3847 15.2775 14.4097 15.5325 13.8613 15.7083C13.628 15.7833 11.4597 16.3225 8.73384 16.145C8.73384 16.145 6.70384 18.595 6.06967 19.2317C5.96967 19.3317 5.853 19.3708 5.77634 19.3517C5.668 19.3242 5.638 19.195 5.63884 19.0067L5.6555 15.6583C1.68717 14.5583 1.918 10.415 1.96384 8.24583C2.00884 6.07583 2.41634 4.2975 3.62717 3.10167C5.2605 1.62417 8.18884 1.42 9.55217 1.41L9.548 1.41083ZM9.86467 3.57917C9.7255 3.57917 9.61217 3.69167 9.61134 3.83083C9.61134 3.97 9.72217 4.08333 9.86134 4.085C11.2147 4.09333 12.3163 4.5325 13.218 5.41167C14.1122 6.28333 14.568 7.46833 14.5788 9.02333C14.5805 9.1625 14.6955 9.27333 14.8347 9.27333C14.973 9.27167 15.0847 9.15833 15.0847 9.02C15.073 7.36667 14.5697 6.02333 13.5713 5.05C12.5797 4.08333 11.3272 3.58917 9.86467 3.57917ZM6.56467 4.15833C6.40634 4.13167 6.23134 4.1625 6.05134 4.25583L6.043 4.2575C5.68467 4.46333 5.363 4.72583 5.088 5.03417C5.08634 5.0375 5.083 5.0375 5.08134 5.04083C4.85884 5.31 4.73134 5.5725 4.698 5.83083C4.69134 5.86917 4.68967 5.90833 4.69217 5.9475C4.69217 6.06083 4.7105 6.1725 4.74634 6.28083L4.75717 6.28917C4.86967 6.68917 5.15134 7.3525 5.76134 8.45917C6.11134 9.09917 6.51384 9.70917 6.96634 10.2808C7.19134 10.5675 7.433 10.8417 7.69134 11.1008L7.80134 11.2108C8.05967 11.4675 8.33467 11.7108 8.62134 11.9358C9.193 12.3883 9.803 12.7917 10.443 13.1417C11.5497 13.7525 12.2147 14.0333 12.613 14.1467L12.6213 14.1583C12.7297 14.1933 12.8422 14.2117 12.9563 14.2108C12.9947 14.2125 13.033 14.2108 13.0713 14.2042C13.3297 14.1742 13.5938 14.0458 13.8613 13.8208C13.8647 13.8208 13.8638 13.8192 13.868 13.8167C14.1763 13.5417 14.4372 13.2167 14.643 12.86L14.6455 12.8517C14.833 12.4917 14.7705 12.15 14.4955 11.9183C14.4922 11.9183 13.9138 11.435 13.6313 11.2267C13.3313 11.0142 13.023 10.8167 12.7038 10.635C12.2788 10.3975 11.8438 10.5467 11.6638 10.78L11.2913 11.25C11.0997 11.4858 10.7438 11.455 10.7438 11.455C8.14384 10.7917 7.448 8.15917 7.448 8.15917C7.448 8.15917 7.41717 7.80417 7.65467 7.6125L8.12384 7.23917C8.35467 7.06 8.50384 6.625 8.2655 6.19917C8.08467 5.88 7.88717 5.56917 7.67384 5.27C7.4655 4.98667 6.9855 4.40917 6.98217 4.4075C6.868 4.27 6.72384 4.18667 6.56384 4.16L6.56467 4.15833ZM10.3063 4.89167C10.1747 4.89333 10.0647 4.995 10.0563 5.12667C10.048 5.26583 10.1522 5.38667 10.2913 5.39667C11.258 5.4675 11.9722 5.785 12.4955 6.355C13.0205 6.92833 13.2705 7.625 13.2505 8.49667C13.2488 8.63667 13.3588 8.75167 13.5005 8.755C13.6388 8.7575 13.7547 8.64667 13.7588 8.5075C13.7797 7.52833 13.4805 6.68 12.8697 6.0125C12.253 5.3375 11.3888 4.96833 10.328 4.89083H10.308L10.3063 4.89167ZM10.6922 6.25C10.5588 6.25167 10.4505 6.35583 10.4422 6.48917C10.4355 6.62833 10.5422 6.7475 10.6822 6.75583C11.118 6.77917 11.4113 6.90167 11.6097 7.1075C11.8097 7.31167 11.933 7.62417 11.9563 8.0775C11.9647 8.21667 12.0813 8.32333 12.2213 8.31667C12.3605 8.31 12.4672 8.19167 12.4605 8.0525C12.4355 7.51583 12.2813 7.07083 11.9772 6.755C11.6713 6.44 11.233 6.27667 10.7105 6.24917H10.6955L10.6922 6.25Z" fill="#001A23"/>
</g>
<defs>
<clipPath id="clip0_297_255">
<rect width="20" height="20" fill="white"/>
</clipPath>
</defs>
</svg>
